<svg width="264" height="78" viewBox="0 0 264 78" fill="none" xmlns="http://www.w3.org/2000/svg">
<g clip-path="url(#clip0_26_1999)">
<path d="M8.82518 50.8209L9.78311 48.5571L7.4702 47.6243L7.06815 46.6672L3.05284 48.2996L2.71533 51.4235L5.21187 53.4005L9.22722 51.7732L8.82518 50.8209Z" fill="white"/>
<path d="M13.2276 55.8446H15.3569V53.7651L14.2352 52.6673L17.6698 49.3053L13.183 51.1223L12.5774 49.6938L10.612 48.8972L9.798 50.8209L10.4035 52.2494L6.01099 54.0321L8.01617 55.621L8.74576 58.0402L12.1109 54.7513L13.2276 55.8446Z" fill="white"/>
<path d="M15.3569 59.1723V56.7237H12.8554L12.1109 55.995L9.03857 59.002L9.94686 62.0194L13.0291 62.913L16.1014 59.901L15.3569 59.1723Z" fill="white"/>
<path d="M6.95904 41.022V42.5718H2.19922L3.43509 44.7871L3.1621 47.2988L7.55465 45.5207L8.16014 46.949L10.1256 47.7458L10.9396 45.8219L10.3341 44.3936L14.8259 42.5718H9.96682V41.022L8.46293 39.55L6.95904 41.022Z" fill="white"/>
<path d="M21.3874 62.1648L23.3529 61.3684L22.5389 59.4443L21.0797 58.8516L22.936 54.4599L19.5014 57.8215L18.3847 56.7237H16.2554V58.8078L17.3771 59.901L14.012 63.1949L16.4837 63.9091L18.1067 65.8716L19.9282 61.5721L21.3874 62.1648Z" fill="white"/>
<path d="M25.6706 42.7224L21.5063 46.7984L26.9461 44.5928L26.6037 43.4608L25.6706 42.7224Z" fill="white"/>
<path d="M13.2674 49.0186L13.6744 49.9707L19.3326 47.6778L24.549 42.5718H17.1785L11.5104 44.8697L11.9174 45.8219L10.9595 48.081L13.2674 49.0186Z" fill="white"/>
<path d="M18.7568 55.8446L19.5012 56.5733L23.8392 52.3321L26.6584 45.6616L19.8437 48.4259L15.5107 52.6673L16.2552 53.396V55.8446H18.7568Z" fill="white"/>
<path d="M28.9068 45.7151L27.7553 45.3799L25.502 50.7044L29.6612 46.6284L28.9068 45.7151Z" fill="white"/>
<path d="M25.2339 41.6924L25.358 40.5216L24.7872 39.4868L19.3474 41.6924H25.2339Z" fill="white"/>
<path d="M24.6531 64.4435L23.7001 62.1843L21.3872 63.1172L20.4144 62.7237L18.7517 66.6541L20.7718 69.1022L23.9682 68.767L25.6309 64.837L24.6531 64.4435Z" fill="white"/>
<path d="M26.4945 61.0476L24.5291 61.8441L25.343 63.7682L26.8072 64.3609L24.9856 68.6604L27.5517 68.3979L29.815 69.6028V57.2483L27.9587 61.6403L26.4945 61.0476Z" fill="white"/>
<path d="M1.70774 41.6924H6.05559V40.6576L7.82255 38.9281L6.05559 37.1986V36.1638H1.70774L0.174072 38.9281L1.70774 41.6924Z" fill="white"/>
<path d="M22.2559 58.3754L23.2287 58.7689L24.1865 61.0331L26.4945 60.0953L27.4723 60.4888L29.815 54.9456V47.7263L24.5985 52.8272L22.2559 58.3754Z" fill="white"/>
<path d="M7.06815 31.1842L7.47514 30.232L9.78311 29.2943L8.82518 27.0352L9.23217 26.0782L5.21187 24.4507L2.71533 26.428L3.05284 29.5567L7.06815 31.1842Z" fill="white"/>
<path d="M9.798 27.0352L10.612 28.9591L12.5774 28.1623L13.183 26.7292L17.6698 28.551L14.2352 25.1891L15.3569 24.0912V22.0119H13.2276L12.1109 23.105L8.74576 19.8159L8.01617 22.2354L6.01099 23.8191L10.4035 25.6021L9.798 27.0352Z" fill="white"/>
<path d="M21.5063 31.0578L25.6706 35.1339L26.6037 34.3906L26.9461 33.2635L21.5063 31.0578Z" fill="white"/>
<path d="M17.1785 35.2845H24.549L19.3326 30.1785L13.6744 27.8806L13.2674 28.8377L10.9595 29.7704L11.9174 32.0343L11.5104 32.9865L17.1785 35.2845Z" fill="white"/>
<path d="M12.8554 21.1277H15.3569V18.684L16.1014 17.9504L13.0291 14.9432L9.94686 15.8323L9.03857 18.8541L12.1109 21.8613L12.8554 21.1277Z" fill="white"/>
<path d="M6.95904 36.8342L8.46293 38.3063L9.96682 36.8342V35.2845H14.8259L10.3341 33.4626L10.9396 32.0343L10.1256 30.1105L8.16014 30.9073L7.55465 32.3355L3.1621 30.5575L3.43509 33.0643L2.19922 35.2845H6.95904V36.8342Z" fill="white"/>
<path d="M24.7872 38.3694L25.358 37.3346L25.2339 36.1638H19.3474L24.7872 38.3694Z" fill="white"/>
<path d="M21.3872 14.7343L23.7001 15.6719L24.6531 13.4128L25.6309 13.0194L23.9682 9.08907L20.7718 8.75385L18.7517 11.2024L20.4144 15.1326L21.3872 14.7343Z" fill="white"/>
<path d="M25.343 14.0881L24.5291 16.012L26.4945 16.8088L27.9587 16.216L29.815 20.6079V8.25345L27.5517 9.45828L24.9856 9.19109L26.8072 13.4955L25.343 14.0881Z" fill="white"/>
<path d="M26.4945 17.7609L24.1865 16.8233L23.2287 19.0873L22.2559 19.4807L24.5985 25.024L29.815 30.1299V22.9106L27.4723 17.3675L26.4945 17.7609Z" fill="white"/>
<path d="M25.502 27.1519L27.7503 32.4716L28.9068 32.1412L29.6612 31.223L25.502 27.1519Z" fill="white"/>
<path d="M19.5012 21.2783L18.7568 22.0119H16.2552V24.4555L15.5107 25.1891L19.8437 29.4303L26.6584 32.1947L23.8392 25.5243L19.5012 21.2783Z" fill="white"/>
<path d="M10.8651 37.1986L9.09814 38.9281L10.8651 40.6576V41.6924H16.9998L23.8094 38.9281L16.9998 36.1638H10.8651V37.1986Z" fill="white"/>
<path d="M16.2554 19.0483V21.1277H18.3847L19.5014 20.0346L22.936 23.3964L21.0797 19.0047L22.5389 18.4119L23.3529 16.4881L21.3874 15.6913L19.9282 16.2841L18.1067 11.9797L16.4837 13.9472L14.012 14.6614L17.3771 17.9504L16.2554 19.0483Z" fill="white"/>
</g>
<path d="M45.51 26.617C45.12 26.617 44.742 26.572 44.376 26.482C44.01 26.386 43.686 26.236 43.404 26.032C43.122 25.828 42.894 25.567 42.72 25.249C42.552 24.931 42.468 24.553 42.468 24.115C42.468 23.761 42.537 23.431 42.675 23.125C42.819 22.819 43.026 22.555 43.296 22.333C43.566 22.105 43.887 21.928 44.259 21.802C44.631 21.676 45.048 21.613 45.51 21.613H45.933V21.163H46.572V25.978H47.778V26.617H45.51ZM45.933 25.978V22.252H45.258C44.988 22.252 44.721 22.3 44.457 22.396C44.199 22.486 43.968 22.612 43.764 22.774C43.566 22.93 43.407 23.125 43.287 23.359C43.167 23.587 43.107 23.839 43.107 24.115C43.107 24.409 43.161 24.673 43.269 24.907C43.383 25.135 43.536 25.327 43.728 25.483C43.92 25.639 44.148 25.762 44.412 25.852C44.676 25.936 44.958 25.978 45.258 25.978H45.933ZM44.943 20.191C44.847 20.287 44.733 20.335 44.601 20.335C44.469 20.335 44.355 20.287 44.259 20.191C44.163 20.095 44.115 19.981 44.115 19.849C44.115 19.717 44.163 19.603 44.259 19.507C44.355 19.411 44.469 19.363 44.601 19.363C44.733 19.363 44.847 19.411 44.943 19.507C45.039 19.603 45.087 19.717 45.087 19.849C45.087 19.981 45.039 20.095 44.943 20.191ZM46.554 20.191C46.458 20.287 46.344 20.335 46.212 20.335C46.08 20.335 45.966 20.287 45.87 20.191C45.774 20.095 45.726 19.981 45.726 19.849C45.726 19.717 45.774 19.603 45.87 19.507C45.966 19.411 46.08 19.363 46.212 19.363C46.344 19.363 46.458 19.411 46.554 19.507C46.65 19.603 46.698 19.717 46.698 19.849C46.698 19.981 46.65 20.095 46.554 20.191ZM47.3674 25.978H48.5014V21.613H49.1404V25.978H50.3464V26.617H47.3674V25.978ZM49.1674 28.336C49.0714 28.432 48.9574 28.48 48.8254 28.48C48.6934 28.48 48.5794 28.432 48.4834 28.336C48.3874 28.24 48.3394 28.126 48.3394 27.994C48.3394 27.862 48.3874 27.748 48.4834 27.652C48.5794 27.556 48.6934 27.508 48.8254 27.508C48.9574 27.508 49.0714 27.556 49.1674 27.652C49.2634 27.748 49.3114 27.862 49.3114 27.994C49.3114 28.126 49.2634 28.24 49.1674 28.336ZM49.9338 25.978H51.1578V19.084H51.7968V25.978H53.2008V26.617H49.9338V25.978ZM52.7902 25.978H54.1942V19.084H54.8332V22.225H58.1542C58.4602 22.225 58.7212 22.276 58.9372 22.378C59.1592 22.48 59.3632 22.633 59.5492 22.837C59.6992 23.011 59.8072 23.212 59.8732 23.44C59.9392 23.662 59.9722 23.887 59.9722 24.115V25.978H61.1782V26.617H52.7902V25.978ZM54.8332 22.864V25.978H59.3332V24.223C59.3332 24.007 59.3122 23.824 59.2702 23.674C59.2282 23.524 59.1592 23.389 59.0632 23.269C58.9672 23.143 58.8382 23.044 58.6762 22.972C58.5202 22.9 58.3642 22.864 58.2082 22.864H54.8332ZM60.7619 25.978H62.1659V19.084H63.6959V19.723H62.8049V26.617H60.7619V25.978ZM64.8587 19.084H65.4977V26.617H64.8587V19.084ZM72.3791 26.617C72.1271 26.617 71.9051 26.605 71.7131 26.581C71.5211 26.563 71.3441 26.53 71.1821 26.482C71.0261 26.434 70.8821 26.374 70.7501 26.302C70.6181 26.23 70.4861 26.143 70.3541 26.041C70.1201 25.867 69.9461 25.636 69.8321 25.348C69.7241 25.06 69.6701 24.781 69.6701 24.511V22.504H70.3091V24.421C70.3091 24.727 70.3511 24.97 70.4351 25.15C70.5191 25.33 70.6421 25.48 70.8041 25.6C70.9721 25.726 71.1701 25.822 71.3981 25.888C71.6261 25.948 71.8691 25.978 72.1271 25.978H75.1781V21.613H75.8171V25.978H77.0231V26.617H72.3791ZM73.5581 28.336C73.4621 28.432 73.3481 28.48 73.2161 28.48C73.0841 28.48 72.9701 28.432 72.8741 28.336C72.7781 28.24 72.7301 28.126 72.7301 27.994C72.7301 27.862 72.7781 27.748 72.8741 27.652C72.9701 27.556 73.0841 27.508 73.2161 27.508C73.3481 27.508 73.4621 27.556 73.5581 27.652C73.6541 27.748 73.7021 27.862 73.7021 27.994C73.7021 28.126 73.6541 28.24 73.5581 28.336ZM76.6086 25.978H78.6426V21.613H79.2816V26.617H76.6086V25.978ZM77.6076 28.336C77.5116 28.432 77.3976 28.48 77.2656 28.48C77.1336 28.48 77.0196 28.432 76.9236 28.336C76.8276 28.24 76.7796 28.126 76.7796 27.994C76.7796 27.862 76.8276 27.748 76.9236 27.652C77.0196 27.556 77.1336 27.508 77.2656 27.508C77.3976 27.508 77.5116 27.556 77.6076 27.652C77.7036 27.748 77.7516 27.862 77.7516 27.994C77.7516 28.126 77.7036 28.24 77.6076 28.336ZM79.2186 28.336C79.1226 28.432 79.0086 28.48 78.8766 28.48C78.7446 28.48 78.6306 28.432 78.5346 28.336C78.4386 28.24 78.3906 28.126 78.3906 27.994C78.3906 27.862 78.4386 27.748 78.5346 27.652C78.6306 27.556 78.7446 27.508 78.8766 27.508C79.0086 27.508 79.1226 27.556 79.2186 27.652C79.3146 27.748 79.3626 27.862 79.3626 27.994C79.3626 28.126 79.3146 28.24 79.2186 28.336ZM80.6898 28.606C80.5218 28.606 80.3208 28.555 80.0868 28.453L80.3208 27.859C80.4948 27.931 80.6298 27.967 80.7258 27.967C80.8698 27.967 80.9808 27.937 81.0588 27.877C81.1368 27.823 81.1968 27.748 81.2388 27.652C81.2808 27.556 81.3078 27.442 81.3198 27.31C81.3318 27.184 81.3378 27.061 81.3378 26.941V21.613H81.9768V26.941C81.9768 27.157 81.9588 27.364 81.9228 27.562C81.8928 27.766 81.8298 27.946 81.7338 28.102C81.6438 28.258 81.5118 28.381 81.3378 28.471C81.1698 28.561 80.9538 28.606 80.6898 28.606ZM82.7332 25.978H86.2252V23.611C86.2252 23.395 86.2042 23.212 86.1622 23.062C86.1202 22.912 86.0512 22.777 85.9552 22.657C85.8592 22.531 85.7302 22.432 85.5682 22.36C85.4122 22.288 85.2562 22.252 85.1002 22.252H84.3262V21.613H85.0462C85.3522 21.613 85.6132 21.664 85.8292 21.766C86.0512 21.868 86.2552 22.021 86.4412 22.225C86.5912 22.399 86.6992 22.6 86.7652 22.828C86.8312 23.05 86.8642 23.275 86.8642 23.503V25.978H88.0702V26.617H82.7332V25.978ZM87.6564 25.978H89.6904V21.613H90.3294V26.617H87.6564V25.978ZM89.4834 20.542C89.3874 20.638 89.2734 20.686 89.1414 20.686C89.0094 20.686 88.8954 20.638 88.7994 20.542C88.7034 20.446 88.6554 20.332 88.6554 20.2C88.6554 20.068 88.7034 19.954 88.7994 19.858C88.8954 19.762 89.0094 19.714 89.1414 19.714C89.2734 19.714 89.3874 19.762 89.4834 19.858C89.5794 19.954 89.6274 20.068 89.6274 20.2C89.6274 20.332 89.5794 20.446 89.4834 20.542ZM91.0944 20.542C90.9984 20.638 90.8844 20.686 90.7524 20.686C90.6204 20.686 90.5064 20.638 90.4104 20.542C90.3144 20.446 90.2664 20.332 90.2664 20.2C90.2664 20.068 90.3144 19.954 90.4104 19.858C90.5064 19.762 90.6204 19.714 90.7524 19.714C90.8844 19.714 90.9984 19.762 91.0944 19.858C91.1904 19.954 91.2384 20.068 91.2384 20.2C91.2384 20.332 91.1904 20.446 91.0944 20.542ZM97.0652 28.597C96.7712 28.597 96.5072 28.555 96.2732 28.471C96.0452 28.387 95.7782 28.255 95.4722 28.075L95.7692 27.508C96.0512 27.664 96.2882 27.778 96.4802 27.85C96.6722 27.922 96.8792 27.958 97.1012 27.958C97.4912 27.958 97.7942 27.868 98.0102 27.688C98.2322 27.508 98.3432 27.256 98.3432 26.932V26.617H97.9202C97.5302 26.617 97.1522 26.575 96.7862 26.491C96.4202 26.401 96.0902 26.257 95.7962 26.059C95.5082 25.861 95.2742 25.603 95.0942 25.285C94.9202 24.961 94.8332 24.571 94.8332 24.115C94.8332 23.749 94.9052 23.413 95.0492 23.107C95.1932 22.795 95.4002 22.528 95.6702 22.306C95.9402 22.084 96.2642 21.913 96.6422 21.793C97.0202 21.673 97.4462 21.613 97.9202 21.613H98.9822V26.932C98.9822 27.448 98.8052 27.853 98.4512 28.147C98.1032 28.447 97.6412 28.597 97.0652 28.597ZM95.4722 24.115C95.4722 24.427 95.5292 24.7 95.6432 24.934C95.7572 25.162 95.9132 25.354 96.1112 25.51C96.3152 25.66 96.5492 25.777 96.8132 25.861C97.0832 25.939 97.3682 25.978 97.6682 25.978H98.3432V22.252H97.6682C97.3982 22.252 97.1312 22.297 96.8672 22.387C96.6032 22.477 96.3662 22.603 96.1562 22.765C95.9522 22.927 95.7872 23.122 95.6612 23.35C95.5352 23.572 95.4722 23.827 95.4722 24.115ZM109.506 22.252H108.579C108.363 22.252 108.18 22.273 108.03 22.315C107.88 22.357 107.742 22.426 107.616 22.522C107.496 22.618 107.4 22.747 107.328 22.909C107.256 23.065 107.22 23.221 107.22 23.377V27.742H104.637C104.409 27.742 104.202 27.73 104.016 27.706C103.836 27.688 103.668 27.655 103.512 27.607C103.356 27.565 103.206 27.514 103.062 27.454C102.918 27.394 102.741 27.304 102.531 27.184L102.846 26.635C103.158 26.815 103.428 26.938 103.656 27.004C103.884 27.07 104.127 27.103 104.385 27.103H106.581V23.431C106.581 23.125 106.632 22.864 106.734 22.648C106.836 22.426 106.989 22.222 107.193 22.036C107.367 21.886 107.565 21.778 107.787 21.712C108.015 21.646 108.243 21.613 108.471 21.613H110.145V25.978H111.351V26.617H109.506V22.252ZM105.357 24.475C105.261 24.571 105.147 24.619 105.015 24.619C104.883 24.619 104.769 24.571 104.673 24.475C104.577 24.379 104.529 24.265 104.529 24.133C104.529 24.001 104.577 23.887 104.673 23.791C104.769 23.695 104.883 23.647 105.015 23.647C105.147 23.647 105.261 23.695 105.357 23.791C105.453 23.887 105.501 24.001 105.501 24.133C105.501 24.265 105.453 24.379 105.357 24.475ZM105.357 26.068C105.261 26.164 105.147 26.212 105.015 26.212C104.883 26.212 104.769 26.164 104.673 26.068C104.577 25.972 104.529 25.858 104.529 25.726C104.529 25.594 104.577 25.48 104.673 25.384C104.769 25.288 104.883 25.24 105.015 25.24C105.147 25.24 105.261 25.288 105.357 25.384C105.453 25.48 105.501 25.594 105.501 25.726C105.501 25.858 105.453 25.972 105.357 26.068ZM110.939 25.978H112.829C112.691 25.888 112.586 25.807 112.514 25.735C112.442 25.663 112.352 25.54 112.244 25.366C112.136 25.192 112.052 25.003 111.992 24.799C111.932 24.589 111.902 24.358 111.902 24.106C111.902 23.74 111.968 23.404 112.1 23.098C112.238 22.786 112.436 22.522 112.694 22.306C112.958 22.084 113.273 21.913 113.639 21.793C114.011 21.673 114.434 21.613 114.908 21.613H116.141V25.573L116.006 25.978H117.356V26.617H110.939V25.978ZM112.541 24.106C112.541 24.328 112.574 24.535 112.64 24.727C112.712 24.913 112.805 25.084 112.919 25.24C113.033 25.396 113.168 25.537 113.324 25.663C113.486 25.789 113.651 25.894 113.819 25.978H115.502V22.252H114.656C114.386 22.252 114.122 22.294 113.864 22.378C113.606 22.462 113.378 22.582 113.18 22.738C112.988 22.894 112.832 23.089 112.712 23.323C112.598 23.551 112.541 23.812 112.541 24.106ZM115.061 20.542C114.965 20.638 114.851 20.686 114.719 20.686C114.587 20.686 114.473 20.638 114.377 20.542C114.281 20.446 114.233 20.332 114.233 20.2C114.233 20.068 114.281 19.954 114.377 19.858C114.473 19.762 114.587 19.714 114.719 19.714C114.851 19.714 114.965 19.762 115.061 19.858C115.157 19.954 115.205 20.068 115.205 20.2C115.205 20.332 115.157 20.446 115.061 20.542ZM116.942 25.978H118.976V21.613H119.615V25.978H121.541V26.617H116.942V25.978ZM120.362 28.336C120.266 28.432 120.152 28.48 120.02 28.48C119.888 28.48 119.774 28.432 119.678 28.336C119.582 28.24 119.534 28.126 119.534 27.994C119.534 27.862 119.582 27.748 119.678 27.652C119.774 27.556 119.888 27.508 120.02 27.508C120.152 27.508 120.266 27.556 120.362 27.652C120.458 27.748 120.506 27.862 120.506 27.994C120.506 28.126 120.458 28.24 120.362 28.336ZM118.751 28.336C118.655 28.432 118.541 28.48 118.409 28.48C118.277 28.48 118.163 28.432 118.067 28.336C117.971 28.24 117.923 28.126 117.923 27.994C117.923 27.862 117.971 27.748 118.067 27.652C118.163 27.556 118.277 27.508 118.409 27.508C118.541 27.508 118.655 27.556 118.751 27.652C118.847 27.748 118.895 27.862 118.895 27.994C118.895 28.126 118.847 28.24 118.751 28.336ZM121.125 25.978H122.529V19.084H123.168V22.225H126.489C126.795 22.225 127.056 22.276 127.272 22.378C127.494 22.48 127.698 22.633 127.884 22.837C128.034 23.011 128.142 23.212 128.208 23.44C128.274 23.662 128.307 23.887 128.307 24.115V26.617H121.125V25.978ZM123.168 22.864V25.978H127.668V24.223C127.668 24.007 127.647 23.824 127.605 23.674C127.563 23.524 127.494 23.389 127.398 23.269C127.302 23.143 127.173 23.044 127.011 22.972C126.855 22.9 126.699 22.864 126.543 22.864H123.168ZM125.634 21.073C125.538 21.169 125.424 21.217 125.292 21.217C125.16 21.217 125.046 21.169 124.95 21.073C124.854 20.977 124.806 20.863 124.806 20.731C124.806 20.599 124.854 20.485 124.95 20.389C125.046 20.293 125.16 20.245 125.292 20.245C125.424 20.245 125.538 20.293 125.634 20.389C125.73 20.485 125.778 20.599 125.778 20.731C125.778 20.863 125.73 20.977 125.634 21.073ZM131.474 28.597C131.18 28.597 130.916 28.555 130.682 28.471C130.454 28.387 130.187 28.255 129.881 28.075L130.178 27.508C130.46 27.664 130.697 27.778 130.889 27.85C131.081 27.922 131.288 27.958 131.51 27.958C131.9 27.958 132.203 27.868 132.419 27.688C132.641 27.508 132.752 27.256 132.752 26.932V26.617H132.329C131.939 26.617 131.561 26.575 131.195 26.491C130.829 26.401 130.499 26.257 130.205 26.059C129.917 25.861 129.683 25.603 129.503 25.285C129.329 24.961 129.242 24.571 129.242 24.115C129.242 23.749 129.314 23.413 129.458 23.107C129.602 22.795 129.809 22.528 130.079 22.306C130.349 22.084 130.673 21.913 131.051 21.793C131.429 21.673 131.855 21.613 132.329 21.613H133.391V25.978H134.786V26.617H133.391V26.932C133.391 27.448 133.214 27.853 132.86 28.147C132.512 28.447 132.05 28.597 131.474 28.597ZM129.881 24.115C129.881 24.427 129.938 24.7 130.052 24.934C130.166 25.162 130.322 25.354 130.52 25.51C130.724 25.66 130.958 25.777 131.222 25.861C131.492 25.939 131.777 25.978 132.077 25.978H132.752V22.252H132.077C131.807 22.252 131.54 22.297 131.276 22.387C131.012 22.477 130.775 22.603 130.565 22.765C130.361 22.927 130.196 23.122 130.07 23.35C129.944 23.572 129.881 23.827 129.881 24.115ZM134.37 25.978H135.774V19.084H137.304V19.723H136.413V26.617H134.37V25.978ZM138.467 19.084H139.106V26.617H138.467V19.084ZM148.589 25.978V26.617H146.321C145.931 26.617 145.553 26.572 145.187 26.482C144.821 26.386 144.497 26.236 144.215 26.032C143.933 25.828 143.705 25.567 143.531 25.249C143.363 24.931 143.279 24.553 143.279 24.115C143.279 23.761 143.348 23.431 143.486 23.125C143.63 22.819 143.837 22.555 144.107 22.333C144.377 22.105 144.698 21.928 145.07 21.802C145.442 21.676 145.859 21.613 146.321 21.613H146.744V21.163H147.383V25.978H148.589ZM146.744 25.978V22.252H146.069C145.799 22.252 145.532 22.3 145.268 22.396C145.01 22.486 144.779 22.612 144.575 22.774C144.377 22.93 144.218 23.125 144.098 23.359C143.978 23.587 143.918 23.839 143.918 24.115C143.918 24.409 143.972 24.673 144.08 24.907C144.194 25.135 144.347 25.327 144.539 25.483C144.731 25.639 144.959 25.762 145.223 25.852C145.487 25.936 145.769 25.978 146.069 25.978H146.744ZM148.178 25.978H150.212V21.613H150.851V25.978H152.777V26.617H148.178V25.978ZM151.598 28.336C151.502 28.432 151.388 28.48 151.256 28.48C151.124 28.48 151.01 28.432 150.914 28.336C150.818 28.24 150.77 28.126 150.77 27.994C150.77 27.862 150.818 27.748 150.914 27.652C151.01 27.556 151.124 27.508 151.256 27.508C151.388 27.508 151.502 27.556 151.598 27.652C151.694 27.748 151.742 27.862 151.742 27.994C151.742 28.126 151.694 28.24 151.598 28.336ZM149.987 28.336C149.891 28.432 149.777 28.48 149.645 28.48C149.513 28.48 149.399 28.432 149.303 28.336C149.207 28.24 149.159 28.126 149.159 27.994C149.159 27.862 149.207 27.748 149.303 27.652C149.399 27.556 149.513 27.508 149.645 27.508C149.777 27.508 149.891 27.556 149.987 27.652C150.083 27.748 150.131 27.862 150.131 27.994C150.131 28.126 150.083 28.24 149.987 28.336ZM152.362 25.978H156.502C156.556 25.792 156.601 25.54 156.637 25.222C156.673 24.904 156.691 24.481 156.691 23.953C156.691 23.695 156.652 23.458 156.574 23.242C156.496 23.026 156.349 22.825 156.133 22.639C155.989 22.525 155.815 22.432 155.611 22.36C155.407 22.288 155.167 22.252 154.891 22.252C154.663 22.252 154.42 22.294 154.162 22.378C153.91 22.456 153.646 22.6 153.37 22.81L153.127 22.198C153.331 22.072 153.499 21.976 153.631 21.91C153.769 21.844 153.91 21.79 154.054 21.748C154.198 21.7 154.348 21.667 154.504 21.649C154.666 21.625 154.846 21.613 155.044 21.613C155.32 21.613 155.587 21.661 155.845 21.757C156.109 21.853 156.337 21.982 156.529 22.144C156.793 22.36 156.994 22.63 157.132 22.954C157.27 23.272 157.339 23.65 157.339 24.088C157.339 24.328 157.33 24.568 157.312 24.808C157.294 25.042 157.27 25.267 157.24 25.483C157.21 25.693 157.174 25.888 157.132 26.068C157.096 26.248 157.045 26.431 156.979 26.617H152.362V25.978ZM155.287 28.336C155.191 28.432 155.077 28.48 154.945 28.48C154.813 28.48 154.699 28.432 154.603 28.336C154.507 28.24 154.459 28.126 154.459 27.994C154.459 27.862 154.507 27.748 154.603 27.652C154.699 27.556 154.813 27.508 154.945 27.508C155.077 27.508 155.191 27.556 155.287 27.652C155.383 27.748 155.431 27.862 155.431 27.994C155.431 28.126 155.383 28.24 155.287 28.336ZM160.417 28.597C160.123 28.597 159.859 28.555 159.625 28.471C159.397 28.387 159.13 28.255 158.824 28.075L159.121 27.508C159.403 27.664 159.64 27.778 159.832 27.85C160.024 27.922 160.231 27.958 160.453 27.958C160.843 27.958 161.146 27.868 161.362 27.688C161.584 27.508 161.695 27.256 161.695 26.932V26.617H161.272C160.882 26.617 160.504 26.575 160.138 26.491C159.772 26.401 159.442 26.257 159.148 26.059C158.86 25.861 158.626 25.603 158.446 25.285C158.272 24.961 158.185 24.571 158.185 24.115C158.185 23.749 158.257 23.413 158.401 23.107C158.545 22.795 158.752 22.528 159.022 22.306C159.292 22.084 159.616 21.913 159.994 21.793C160.372 21.673 160.798 21.613 161.272 21.613H162.334V25.978H163.729V26.617H162.334V26.932C162.334 27.448 162.157 27.853 161.803 28.147C161.455 28.447 160.993 28.597 160.417 28.597ZM158.824 24.115C158.824 24.427 158.881 24.7 158.995 24.934C159.109 25.162 159.265 25.354 159.463 25.51C159.667 25.66 159.901 25.777 160.165 25.861C160.435 25.939 160.72 25.978 161.02 25.978H161.695V22.252H161.02C160.75 22.252 160.483 22.297 160.219 22.387C159.955 22.477 159.718 22.603 159.508 22.765C159.304 22.927 159.139 23.122 159.013 23.35C158.887 23.572 158.824 23.827 158.824 24.115ZM163.313 25.978H165.347V21.613H165.986V25.978H167.912V26.617H163.313V25.978ZM166.742 20.542C166.646 20.638 166.532 20.686 166.4 20.686C166.268 20.686 166.154 20.638 166.058 20.542C165.962 20.446 165.914 20.332 165.914 20.2C165.914 20.068 165.962 19.954 166.058 19.858C166.154 19.762 166.268 19.714 166.4 19.714C166.532 19.714 166.646 19.762 166.742 19.858C166.838 19.954 166.886 20.068 166.886 20.2C166.886 20.332 166.838 20.446 166.742 20.542ZM165.131 20.542C165.035 20.638 164.921 20.686 164.789 20.686C164.657 20.686 164.543 20.638 164.447 20.542C164.351 20.446 164.303 20.332 164.303 20.2C164.303 20.068 164.351 19.954 164.447 19.858C164.543 19.762 164.657 19.714 164.789 19.714C164.921 19.714 165.035 19.762 165.131 19.858C165.227 19.954 165.275 20.068 165.275 20.2C165.275 20.332 165.227 20.446 165.131 20.542ZM167.496 25.978H168.9V19.084H170.43V19.723H169.539V26.617H167.496V25.978ZM171.593 19.084H172.232V26.617H171.593V19.084ZM179.114 26.617C178.862 26.617 178.64 26.605 178.448 26.581C178.256 26.563 178.079 26.53 177.917 26.482C177.761 26.434 177.617 26.374 177.485 26.302C177.353 26.23 177.221 26.143 177.089 26.041C176.855 25.867 176.681 25.636 176.567 25.348C176.459 25.06 176.405 24.781 176.405 24.511V22.504H177.044V24.421C177.044 24.727 177.086 24.97 177.17 25.15C177.254 25.33 177.377 25.48 177.539 25.6C177.707 25.726 177.905 25.822 178.133 25.888C178.361 25.948 178.604 25.978 178.862 25.978H181.913V21.613H182.552V25.978H183.758V26.617H179.114ZM180.293 28.336C180.197 28.432 180.083 28.48 179.951 28.48C179.819 28.48 179.705 28.432 179.609 28.336C179.513 28.24 179.465 28.126 179.465 27.994C179.465 27.862 179.513 27.748 179.609 27.652C179.705 27.556 179.819 27.508 179.951 27.508C180.083 27.508 180.197 27.556 180.293 27.652C180.389 27.748 180.437 27.862 180.437 27.994C180.437 28.126 180.389 28.24 180.293 28.336ZM183.343 25.978H185.377V21.613H186.016V25.978H187.942V26.617H183.343V25.978ZM186.772 20.542C186.676 20.638 186.562 20.686 186.43 20.686C186.298 20.686 186.184 20.638 186.088 20.542C185.992 20.446 185.944 20.332 185.944 20.2C185.944 20.068 185.992 19.954 186.088 19.858C186.184 19.762 186.298 19.714 186.43 19.714C186.562 19.714 186.676 19.762 186.772 19.858C186.868 19.954 186.916 20.068 186.916 20.2C186.916 20.332 186.868 20.446 186.772 20.542ZM185.161 20.542C185.065 20.638 184.951 20.686 184.819 20.686C184.687 20.686 184.573 20.638 184.477 20.542C184.381 20.446 184.333 20.332 184.333 20.2C184.333 20.068 184.381 19.954 184.477 19.858C184.573 19.762 184.687 19.714 184.819 19.714C184.951 19.714 185.065 19.762 185.161 19.858C185.257 19.954 185.305 20.068 185.305 20.2C185.305 20.332 185.257 20.446 185.161 20.542ZM187.527 25.978H193.386V24.151C193.386 23.935 193.365 23.752 193.323 23.602C193.281 23.452 193.212 23.317 193.116 23.197C193.02 23.071 192.891 22.972 192.729 22.9C192.573 22.828 192.417 22.792 192.261 22.792H188.454C188.352 22.696 188.28 22.615 188.238 22.549C188.202 22.483 188.166 22.387 188.13 22.261L189.732 19.075H190.443L188.913 22.153H192.207C192.513 22.153 192.774 22.204 192.99 22.306C193.212 22.408 193.416 22.561 193.602 22.765C193.752 22.939 193.86 23.14 193.926 23.368C193.992 23.59 194.025 23.815 194.025 24.043V25.978H195.231V26.617H187.527V25.978ZM194.813 25.978H195.74C195.548 25.672 195.452 25.252 195.452 24.718C195.452 24.352 195.518 24.007 195.65 23.683C195.788 23.359 195.971 23.074 196.199 22.828C196.433 22.582 196.709 22.39 197.027 22.252C197.345 22.108 197.69 22.036 198.062 22.036C198.452 22.036 198.809 22.105 199.133 22.243C199.463 22.381 199.748 22.57 199.988 22.81C200.228 23.05 200.414 23.332 200.546 23.656C200.684 23.98 200.753 24.334 200.753 24.718C200.753 25.108 200.684 25.465 200.546 25.789C200.408 26.107 200.216 26.386 199.97 26.626C199.73 26.866 199.448 27.052 199.124 27.184C198.8 27.316 198.446 27.382 198.062 27.382C197.678 27.382 197.324 27.31 197 27.166C196.682 27.022 196.418 26.839 196.208 26.617H194.813V25.978ZM198.062 26.743C198.356 26.743 198.629 26.692 198.881 26.59C199.133 26.488 199.349 26.35 199.529 26.176C199.709 25.996 199.85 25.783 199.952 25.537C200.06 25.285 200.114 25.012 200.114 24.718C200.114 24.424 200.063 24.151 199.961 23.899C199.859 23.647 199.715 23.431 199.529 23.251C199.349 23.071 199.133 22.93 198.881 22.828C198.629 22.726 198.356 22.675 198.062 22.675C197.774 22.675 197.51 22.729 197.27 22.837C197.03 22.945 196.823 23.092 196.649 23.278C196.475 23.464 196.337 23.683 196.235 23.935C196.139 24.181 196.091 24.442 196.091 24.718C196.091 24.988 196.139 25.249 196.235 25.501C196.337 25.747 196.475 25.963 196.649 26.149C196.829 26.329 197.039 26.473 197.279 26.581C197.519 26.689 197.78 26.743 198.062 26.743ZM46.23 34.615C45.81 34.615 45.411 34.687 45.033 34.831C44.661 34.975 44.331 35.185 44.043 35.461C43.761 35.737 43.536 36.076 43.368 36.478C43.2 36.874 43.116 37.33 43.116 37.846C43.116 38.362 43.2 38.821 43.368 39.223C43.536 39.619 43.761 39.955 44.043 40.231C44.331 40.507 44.661 40.717 45.033 40.861C45.411 41.005 45.81 41.077 46.23 41.077C46.644 41.077 47.028 41.029 47.382 40.933C47.736 40.831 48.084 40.678 48.426 40.474L48.723 41.041C48.339 41.275 47.943 41.443 47.535 41.545C47.127 41.653 46.692 41.707 46.23 41.707C45.642 41.707 45.111 41.608 44.637 41.41C44.169 41.206 43.77 40.93 43.44 40.582C43.116 40.234 42.864 39.826 42.684 39.358C42.51 38.884 42.423 38.38 42.423 37.846C42.423 37.312 42.51 36.811 42.684 36.343C42.864 35.869 43.116 35.458 43.44 35.11C43.77 34.762 44.169 34.489 44.637 34.291C45.111 34.087 45.642 33.985 46.23 33.985C46.692 33.985 47.127 34.039 47.535 34.147C47.943 34.249 48.339 34.417 48.723 34.651L48.426 35.218C48.084 35.014 47.736 34.864 47.382 34.768C47.028 34.666 46.644 34.615 46.23 34.615ZM55.8254 41.617H55.1054L54.1514 39.241H50.8394L49.8854 41.617H49.1654L52.1894 34.084H52.8014L55.8254 41.617ZM51.1004 38.584H53.8904L52.4954 35.128L51.1004 38.584ZM57.6409 38.341V41.617H56.9749V34.084H59.3959C59.8639 34.084 60.2629 34.141 60.5929 34.255C60.9289 34.363 61.2019 34.513 61.4119 34.705C61.6219 34.891 61.7749 35.113 61.8709 35.371C61.9669 35.629 62.0149 35.899 62.0149 36.181C62.0149 36.391 61.9879 36.604 61.9339 36.82C61.8859 37.036 61.7899 37.24 61.6459 37.432C61.5019 37.624 61.3069 37.795 61.0609 37.945C60.8149 38.089 60.5539 38.185 60.2779 38.233L62.4289 41.617H61.6459L59.5489 38.341C59.5309 38.341 59.4859 38.341 59.4139 38.341H59.1889H57.6409ZM57.6409 34.723V37.702H59.2699C59.5999 37.702 59.8939 37.675 60.1519 37.621C60.4099 37.567 60.6229 37.48 60.7909 37.36C60.9649 37.234 61.0969 37.075 61.1869 36.883C61.2769 36.691 61.3219 36.454 61.3219 36.172C61.3219 35.95 61.2859 35.749 61.2139 35.569C61.1419 35.389 61.0249 35.239 60.8629 35.119C60.7069 34.993 60.4969 34.897 60.2329 34.831C59.9689 34.759 59.6479 34.723 59.2699 34.723H57.6409ZM63.7161 34.084H68.1081V34.723H64.3821V37.369H67.7571V38.026H64.3821V40.978H68.1531V41.617H63.7161V34.084ZM69.719 34.084H74.111V34.723H70.385V37.369H73.76V38.026H70.385V40.978H74.156V41.617H69.719V34.084ZM76.3879 38.341V41.617H75.7219V34.084H78.1429C78.6109 34.084 79.0099 34.141 79.3399 34.255C79.6759 34.363 79.9489 34.513 80.1589 34.705C80.3689 34.891 80.5219 35.113 80.6179 35.371C80.7139 35.629 80.7619 35.899 80.7619 36.181C80.7619 36.391 80.7349 36.604 80.6809 36.82C80.6329 37.036 80.5369 37.24 80.3929 37.432C80.2489 37.624 80.0539 37.795 79.8079 37.945C79.5619 38.089 79.3009 38.185 79.0249 38.233L81.1759 41.617H80.3929L78.2959 38.341C78.2779 38.341 78.2329 38.341 78.1609 38.341H77.9359H76.3879ZM76.3879 34.723V37.702H78.0169C78.3469 37.702 78.6409 37.675 78.8989 37.621C79.1569 37.567 79.3699 37.48 79.5379 37.36C79.7119 37.234 79.8439 37.075 79.9339 36.883C80.0239 36.691 80.0689 36.454 80.0689 36.172C80.0689 35.95 80.0329 35.749 79.9609 35.569C79.8889 35.389 79.7719 35.239 79.6099 35.119C79.4539 34.993 79.2439 34.897 78.9799 34.831C78.7159 34.759 78.3949 34.723 78.0169 34.723H76.3879ZM91.1399 41.617H90.4199L89.4659 39.241H86.1539L85.1999 41.617H84.4799L87.5039 34.084H88.1159L91.1399 41.617ZM86.4149 38.584H89.2049L87.8099 35.128L86.4149 38.584ZM93.9813 40.978C94.5573 40.978 95.0643 40.906 95.5023 40.762C95.9463 40.612 96.3153 40.402 96.6093 40.132C96.9093 39.856 97.1373 39.526 97.2933 39.142C97.4493 38.758 97.5273 38.326 97.5273 37.846C97.5273 37.366 97.4403 36.934 97.2663 36.55C97.0923 36.166 96.8493 35.839 96.5373 35.569C96.2253 35.299 95.8503 35.092 95.4123 34.948C94.9803 34.798 94.5033 34.723 93.9813 34.723H92.9553V40.978H93.9813ZM92.2893 34.084H93.9903C94.5963 34.084 95.1543 34.165 95.6643 34.327C96.1803 34.483 96.6273 34.723 97.0053 35.047C97.3893 35.365 97.6863 35.758 97.8963 36.226C98.1123 36.694 98.2203 37.234 98.2203 37.846C98.2203 38.458 98.1123 39.001 97.8963 39.475C97.6863 39.943 97.3893 40.336 97.0053 40.654C96.6273 40.972 96.1803 41.212 95.6643 41.374C95.1543 41.536 94.5963 41.617 93.9903 41.617H92.2893V34.084ZM98.6587 34.084H99.3787L101.899 40.564L104.419 34.084H105.139L102.205 41.617H101.593L98.6587 34.084ZM111.451 41.617H110.731L109.777 39.241H106.465L105.511 41.617H104.791L107.815 34.084H108.427L111.451 41.617ZM106.726 38.584H109.516L108.121 35.128L106.726 38.584ZM113.276 35.002V41.617H112.601V34.084H113.483L117.587 40.699V34.084H118.262V41.617H117.38L113.276 35.002ZM123.547 34.615C123.127 34.615 122.728 34.687 122.35 34.831C121.978 34.975 121.648 35.185 121.36 35.461C121.078 35.737 120.853 36.076 120.685 36.478C120.517 36.874 120.433 37.33 120.433 37.846C120.433 38.362 120.517 38.821 120.685 39.223C120.853 39.619 121.078 39.955 121.36 40.231C121.648 40.507 121.978 40.717 122.35 40.861C122.728 41.005 123.127 41.077 123.547 41.077C123.961 41.077 124.345 41.029 124.699 40.933C125.053 40.831 125.401 40.678 125.743 40.474L126.04 41.041C125.656 41.275 125.26 41.443 124.852 41.545C124.444 41.653 124.009 41.707 123.547 41.707C122.959 41.707 122.428 41.608 121.954 41.41C121.486 41.206 121.087 40.93 120.757 40.582C120.433 40.234 120.181 39.826 120.001 39.358C119.827 38.884 119.74 38.38 119.74 37.846C119.74 37.312 119.827 36.811 120.001 36.343C120.181 35.869 120.433 35.458 120.757 35.11C121.087 34.762 121.486 34.489 121.954 34.291C122.428 34.087 122.959 33.985 123.547 33.985C124.009 33.985 124.444 34.039 124.852 34.147C125.26 34.249 125.656 34.417 126.04 34.651L125.743 35.218C125.401 35.014 125.053 34.864 124.699 34.768C124.345 34.666 123.961 34.615 123.547 34.615ZM127.437 34.084H131.829V34.723H128.103V37.369H131.478V38.026H128.103V40.978H131.874V41.617H127.437V34.084ZM136.806 41.617L134.106 35.182V41.617H133.44V34.084H134.367L137.112 40.699L139.857 34.084H140.784V41.617H140.118V35.182L137.418 41.617H136.806ZM142.888 34.084H147.28V34.723H143.554V37.369H146.929V38.026H143.554V40.978H147.325V41.617H142.888V34.084ZM149.566 35.002V41.617H148.891V34.084H149.773L153.877 40.699V34.084H154.552V41.617H153.67L149.566 35.002ZM158.433 34.723H155.76V34.084H161.772V34.723H159.099V41.617H158.433V34.723ZM171.656 41.617H170.936L169.982 39.241H166.67L165.716 41.617H164.996L168.02 34.084H168.632L171.656 41.617ZM166.931 38.584H169.721L168.326 35.128L166.931 38.584ZM173.481 35.002V41.617H172.806V34.084H173.688L177.792 40.699V34.084H178.467V41.617H177.585L173.481 35.002ZM182.267 40.978C182.843 40.978 183.35 40.906 183.788 40.762C184.232 40.612 184.601 40.402 184.895 40.132C185.195 39.856 185.423 39.526 185.579 39.142C185.735 38.758 185.813 38.326 185.813 37.846C185.813 37.366 185.726 36.934 185.552 36.55C185.378 36.166 185.135 35.839 184.823 35.569C184.511 35.299 184.136 35.092 183.698 34.948C183.266 34.798 182.789 34.723 182.267 34.723H181.241V40.978H182.267ZM180.575 34.084H182.276C182.882 34.084 183.44 34.165 183.95 34.327C184.466 34.483 184.913 34.723 185.291 35.047C185.675 35.365 185.972 35.758 186.182 36.226C186.398 36.694 186.506 37.234 186.506 37.846C186.506 38.458 186.398 39.001 186.182 39.475C185.972 39.943 185.675 40.336 185.291 40.654C184.913 40.972 184.466 41.212 183.95 41.374C183.44 41.536 182.882 41.617 182.276 41.617H180.575V34.084ZM190.721 40.411C191.063 40.621 191.411 40.786 191.765 40.906C192.125 41.02 192.503 41.077 192.899 41.077C193.511 41.077 193.988 40.954 194.33 40.708C194.678 40.456 194.852 40.096 194.852 39.628C194.852 39.412 194.813 39.223 194.735 39.061C194.657 38.899 194.543 38.755 194.393 38.629C194.243 38.503 194.057 38.392 193.835 38.296C193.619 38.2 193.376 38.11 193.106 38.026L192.566 37.864C191.906 37.666 191.417 37.396 191.099 37.054C190.787 36.706 190.631 36.292 190.631 35.812C190.631 35.494 190.697 35.221 190.829 34.993C190.967 34.759 191.147 34.567 191.369 34.417C191.591 34.267 191.837 34.159 192.107 34.093C192.383 34.021 192.665 33.985 192.953 33.985C193.415 33.985 193.85 34.045 194.258 34.165C194.672 34.285 195.074 34.465 195.464 34.705L195.122 35.272C194.78 35.056 194.429 34.894 194.069 34.786C193.715 34.672 193.337 34.615 192.935 34.615C192.713 34.615 192.5 34.639 192.296 34.687C192.098 34.735 191.927 34.807 191.783 34.903C191.645 34.993 191.534 35.11 191.45 35.254C191.366 35.398 191.324 35.566 191.324 35.758C191.324 36.136 191.444 36.439 191.684 36.667C191.93 36.889 192.299 37.078 192.791 37.234L193.385 37.414C193.643 37.492 193.898 37.588 194.15 37.702C194.408 37.816 194.639 37.96 194.843 38.134C195.047 38.302 195.212 38.506 195.338 38.746C195.47 38.98 195.536 39.256 195.536 39.574C195.536 40.264 195.305 40.792 194.843 41.158C194.381 41.524 193.733 41.707 192.899 41.707C192.449 41.707 192.011 41.647 191.585 41.527C191.165 41.407 190.76 41.227 190.37 40.987L190.721 40.411ZM198.696 34.723H196.023V34.084H202.035V34.723H199.362V41.617H198.696V34.723ZM206.239 41.707C205.657 41.707 205.168 41.626 204.772 41.464C204.382 41.302 204.064 41.083 203.818 40.807C203.578 40.525 203.407 40.201 203.305 39.835C203.203 39.469 203.152 39.085 203.152 38.683V34.084H203.809V38.584C203.809 39.418 204.001 40.042 204.385 40.456C204.769 40.87 205.387 41.077 206.239 41.077C207.085 41.077 207.7 40.873 208.084 40.465C208.468 40.051 208.66 39.424 208.66 38.584V34.084H209.317V38.683C209.317 39.085 209.266 39.469 209.164 39.835C209.062 40.201 208.891 40.525 208.651 40.807C208.411 41.083 208.093 41.302 207.697 41.464C207.301 41.626 206.815 41.707 206.239 41.707ZM213.029 40.978C213.605 40.978 214.112 40.906 214.55 40.762C214.994 40.612 215.363 40.402 215.657 40.132C215.957 39.856 216.185 39.526 216.341 39.142C216.497 38.758 216.575 38.326 216.575 37.846C216.575 37.366 216.488 36.934 216.314 36.55C216.14 36.166 215.897 35.839 215.585 35.569C215.273 35.299 214.898 35.092 214.46 34.948C214.028 34.798 213.551 34.723 213.029 34.723H212.003V40.978H213.029ZM211.337 34.084H213.038C213.644 34.084 214.202 34.165 214.712 34.327C215.228 34.483 215.675 34.723 216.053 35.047C216.437 35.365 216.734 35.758 216.944 36.226C217.16 36.694 217.268 37.234 217.268 37.846C217.268 38.458 217.16 39.001 216.944 39.475C216.734 39.943 216.437 40.336 216.053 40.654C215.675 40.972 215.228 41.212 214.712 41.374C214.202 41.536 213.644 41.617 213.038 41.617H211.337V34.084ZM218.746 34.084H223.138V34.723H219.412V37.369H222.787V38.026H219.412V40.978H223.183V41.617H218.746V34.084ZM225.424 35.002V41.617H224.749V34.084H225.631L229.735 40.699V34.084H230.41V41.617H229.528L225.424 35.002ZM234.292 34.723H231.619V34.084H237.631V34.723H234.958V41.617H234.292V34.723ZM44.826 49.723H42.153V49.084H48.165V49.723H45.492V56.617H44.826V49.723ZM50.0383 53.341V56.617H49.3723V49.084H51.7933C52.2613 49.084 52.6603 49.141 52.9903 49.255C53.3263 49.363 53.5993 49.513 53.8093 49.705C54.0193 49.891 54.1723 50.113 54.2683 50.371C54.3643 50.629 54.4123 50.899 54.4123 51.181C54.4123 51.391 54.3853 51.604 54.3313 51.82C54.2833 52.036 54.1873 52.24 54.0433 52.432C53.8993 52.624 53.7043 52.795 53.4583 52.945C53.2123 53.089 52.9513 53.185 52.6753 53.233L54.8263 56.617H54.0433L51.9463 53.341C51.9283 53.341 51.8833 53.341 51.8113 53.341H51.5863H50.0383ZM50.0383 49.723V52.702H51.6673C51.9973 52.702 52.2913 52.675 52.5493 52.621C52.8073 52.567 53.0203 52.48 53.1883 52.36C53.3623 52.234 53.4943 52.075 53.5843 51.883C53.6743 51.691 53.7193 51.454 53.7193 51.172C53.7193 50.95 53.6833 50.749 53.6113 50.569C53.5393 50.389 53.4223 50.239 53.2603 50.119C53.1043 49.993 52.8943 49.897 52.6303 49.831C52.3663 49.759 52.0453 49.723 51.6673 49.723H50.0383ZM61.8195 56.617H61.0995L60.1455 54.241H56.8335L55.8795 56.617H55.1595L58.1835 49.084H58.7955L61.8195 56.617ZM57.0945 53.584H59.8845L58.4895 50.128L57.0945 53.584ZM62.969 56.617V49.084H63.635V56.617H62.969ZM66.4126 50.002V56.617H65.7376V49.084H66.6196L70.7236 55.699V49.084H71.3986V56.617H70.5166L66.4126 50.002ZM73.5071 56.617V49.084H74.1731V56.617H73.5071ZM76.9507 50.002V56.617H76.2757V49.084H77.1577L81.2617 55.699V49.084H81.9367V56.617H81.0547L76.9507 50.002ZM87.2222 56.707C86.6342 56.707 86.1032 56.608 85.6292 56.41C85.1612 56.206 84.7622 55.93 84.4322 55.582C84.1082 55.234 83.8562 54.826 83.6762 54.358C83.5022 53.884 83.4152 53.38 83.4152 52.846C83.4152 52.312 83.5022 51.811 83.6762 51.343C83.8562 50.869 84.1082 50.458 84.4322 50.11C84.7622 49.762 85.1612 49.489 85.6292 49.291C86.1032 49.087 86.6342 48.985 87.2222 48.985C87.6842 48.985 88.1192 49.039 88.5272 49.147C88.9352 49.249 89.3312 49.417 89.7152 49.651L89.4182 50.218C89.0762 50.014 88.7282 49.864 88.3742 49.768C88.0202 49.666 87.6362 49.615 87.2222 49.615C86.8022 49.615 86.4032 49.687 86.0252 49.831C85.6532 49.975 85.3232 50.185 85.0352 50.461C84.7532 50.737 84.5282 51.076 84.3602 51.478C84.1922 51.874 84.1082 52.33 84.1082 52.846C84.1082 53.362 84.1922 53.821 84.3602 54.223C84.5282 54.619 84.7532 54.955 85.0352 55.231C85.3232 55.507 85.6532 55.717 86.0252 55.861C86.4032 56.005 86.8022 56.077 87.2222 56.077C87.5702 56.077 87.9212 56.038 88.2752 55.96C88.6292 55.876 88.9262 55.777 89.1662 55.663V53.611H86.9882V52.954H89.8322V56.041C89.4722 56.263 89.0642 56.428 88.6082 56.536C88.1582 56.65 87.6962 56.707 87.2222 56.707ZM94.5665 54.394C94.3745 53.92 94.2785 53.404 94.2785 52.846C94.2785 52.288 94.3745 51.775 94.5665 51.307C94.7645 50.833 95.0345 50.425 95.3765 50.083C95.7185 49.735 96.1205 49.465 96.5825 49.273C97.0505 49.081 97.5545 48.985 98.0945 48.985C98.6345 48.985 99.1355 49.081 99.5975 49.273C100.065 49.465 100.47 49.735 100.812 50.083C101.154 50.425 101.421 50.833 101.613 51.307C101.811 51.775 101.91 52.288 101.91 52.846C101.91 53.404 101.811 53.92 101.613 54.394C101.421 54.862 101.154 55.27 100.812 55.618C100.47 55.96 100.065 56.227 99.5975 56.419C99.1355 56.611 98.6345 56.707 98.0945 56.707C97.5545 56.707 97.0505 56.611 96.5825 56.419C96.1205 56.227 95.7185 55.96 95.3765 55.618C95.0345 55.27 94.7645 54.862 94.5665 54.394ZM95.2235 51.496C95.0555 51.898 94.9715 52.348 94.9715 52.846C94.9715 53.344 95.0555 53.794 95.2235 54.196C95.3915 54.598 95.6165 54.937 95.8985 55.213C96.1865 55.489 96.5195 55.702 96.8975 55.852C97.2755 56.002 97.6715 56.077 98.0855 56.077C98.5055 56.077 98.9045 56.002 99.2825 55.852C99.6605 55.702 99.9905 55.489 100.272 55.213C100.56 54.931 100.788 54.592 100.956 54.196C101.13 53.794 101.217 53.344 101.217 52.846C101.217 52.348 101.13 51.901 100.956 51.505C100.788 51.103 100.56 50.764 100.272 50.488C99.9905 50.206 99.6605 49.99 99.2825 49.84C98.9045 49.69 98.5055 49.615 98.0855 49.615C97.6715 49.615 97.2755 49.69 96.8975 49.84C96.5195 49.99 96.1865 50.203 95.8985 50.479C95.6165 50.755 95.3915 51.094 95.2235 51.496ZM103.39 56.617V49.084H107.71V49.723H104.056V52.369H107.332V53.026H104.056V56.617H103.39ZM108.918 56.617V49.084H113.238V49.723H109.584V52.369H112.86V53.026H109.584V56.617H108.918ZM114.447 56.617V49.084H115.113V56.617H114.447ZM120.392 49.615C119.972 49.615 119.573 49.687 119.195 49.831C118.823 49.975 118.493 50.185 118.205 50.461C117.923 50.737 117.698 51.076 117.53 51.478C117.362 51.874 117.278 52.33 117.278 52.846C117.278 53.362 117.362 53.821 117.53 54.223C117.698 54.619 117.923 54.955 118.205 55.231C118.493 55.507 118.823 55.717 119.195 55.861C119.573 56.005 119.972 56.077 120.392 56.077C120.806 56.077 121.19 56.029 121.544 55.933C121.898 55.831 122.246 55.678 122.588 55.474L122.885 56.041C122.501 56.275 122.105 56.443 121.697 56.545C121.289 56.653 120.854 56.707 120.392 56.707C119.804 56.707 119.273 56.608 118.799 56.41C118.331 56.206 117.932 55.93 117.602 55.582C117.278 55.234 117.026 54.826 116.846 54.358C116.672 53.884 116.585 53.38 116.585 52.846C116.585 52.312 116.672 51.811 116.846 51.343C117.026 50.869 117.278 50.458 117.602 50.11C117.932 49.762 118.331 49.489 118.799 49.291C119.273 49.087 119.804 48.985 120.392 48.985C120.854 48.985 121.289 49.039 121.697 49.147C122.105 49.249 122.501 49.417 122.885 49.651L122.588 50.218C122.246 50.014 121.898 49.864 121.544 49.768C121.19 49.666 120.806 49.615 120.392 49.615ZM124.282 49.084H128.674V49.723H124.948V52.369H128.323V53.026H124.948V55.978H128.719V56.617H124.282V49.084ZM132.76 53.836C132.76 53.356 132.796 52.888 132.868 52.432C132.94 51.976 133.036 51.547 133.156 51.145C133.282 50.743 133.417 50.371 133.561 50.029C133.711 49.687 133.879 49.372 134.065 49.084H134.731C134.509 49.486 134.323 49.855 134.173 50.191C134.023 50.521 133.891 50.878 133.777 51.262C133.669 51.646 133.579 52.054 133.507 52.486C133.441 52.912 133.408 53.362 133.408 53.836C133.408 54.31 133.441 54.763 133.507 55.195C133.579 55.621 133.669 56.026 133.777 56.41C133.891 56.794 134.023 57.154 134.173 57.49C134.323 57.826 134.509 58.195 134.731 58.597H134.065C133.879 58.309 133.711 57.994 133.561 57.652C133.417 57.31 133.282 56.938 133.156 56.536C133.036 56.134 132.94 55.705 132.868 55.249C132.796 54.793 132.76 54.322 132.76 53.836ZM138.902 49.615C138.482 49.615 138.083 49.687 137.705 49.831C137.333 49.975 137.003 50.185 136.715 50.461C136.433 50.737 136.208 51.076 136.04 51.478C135.872 51.874 135.788 52.33 135.788 52.846C135.788 53.362 135.872 53.821 136.04 54.223C136.208 54.619 136.433 54.955 136.715 55.231C137.003 55.507 137.333 55.717 137.705 55.861C138.083 56.005 138.482 56.077 138.902 56.077C139.316 56.077 139.7 56.029 140.054 55.933C140.408 55.831 140.756 55.678 141.098 55.474L141.395 56.041C141.011 56.275 140.615 56.443 140.207 56.545C139.799 56.653 139.364 56.707 138.902 56.707C138.314 56.707 137.783 56.608 137.309 56.41C136.841 56.206 136.442 55.93 136.112 55.582C135.788 55.234 135.536 54.826 135.356 54.358C135.182 53.884 135.095 53.38 135.095 52.846C135.095 52.312 135.182 51.811 135.356 51.343C135.536 50.869 135.788 50.458 136.112 50.11C136.442 49.762 136.841 49.489 137.309 49.291C137.783 49.087 138.314 48.985 138.902 48.985C139.364 48.985 139.799 49.039 140.207 49.147C140.615 49.249 141.011 49.417 141.395 49.651L141.098 50.218C140.756 50.014 140.408 49.864 140.054 49.768C139.7 49.666 139.316 49.615 138.902 49.615ZM148.497 56.617H147.777L146.823 54.241H143.511L142.557 56.617H141.837L144.861 49.084H145.473L148.497 56.617ZM143.772 53.584H146.562L145.167 50.128L143.772 53.584ZM149.325 55.411C149.667 55.621 150.015 55.786 150.369 55.906C150.729 56.02 151.107 56.077 151.503 56.077C152.115 56.077 152.592 55.954 152.934 55.708C153.282 55.456 153.456 55.096 153.456 54.628C153.456 54.412 153.417 54.223 153.339 54.061C153.261 53.899 153.147 53.755 152.997 53.629C152.847 53.503 152.661 53.392 152.439 53.296C152.223 53.2 151.98 53.11 151.71 53.026L151.17 52.864C150.51 52.666 150.021 52.396 149.703 52.054C149.391 51.706 149.235 51.292 149.235 50.812C149.235 50.494 149.301 50.221 149.433 49.993C149.571 49.759 149.751 49.567 149.973 49.417C150.195 49.267 150.441 49.159 150.711 49.093C150.987 49.021 151.269 48.985 151.557 48.985C152.019 48.985 152.454 49.045 152.862 49.165C153.276 49.285 153.678 49.465 154.068 49.705L153.726 50.272C153.384 50.056 153.033 49.894 152.673 49.786C152.319 49.672 151.941 49.615 151.539 49.615C151.317 49.615 151.104 49.639 150.9 49.687C150.702 49.735 150.531 49.807 150.387 49.903C150.249 49.993 150.138 50.11 150.054 50.254C149.97 50.398 149.928 50.566 149.928 50.758C149.928 51.136 150.048 51.439 150.288 51.667C150.534 51.889 150.903 52.078 151.395 52.234L151.989 52.414C152.247 52.492 152.502 52.588 152.754 52.702C153.012 52.816 153.243 52.96 153.447 53.134C153.651 53.302 153.816 53.506 153.942 53.746C154.074 53.98 154.14 54.256 154.14 54.574C154.14 55.264 153.909 55.792 153.447 56.158C152.985 56.524 152.337 56.707 151.503 56.707C151.053 56.707 150.615 56.647 150.189 56.527C149.769 56.407 149.364 56.227 148.974 55.987L149.325 55.411ZM157.3 49.723H154.627V49.084H160.639V49.723H157.966V56.617H157.3V49.723ZM160.968 54.394C160.776 53.92 160.68 53.404 160.68 52.846C160.68 52.288 160.776 51.775 160.968 51.307C161.166 50.833 161.436 50.425 161.778 50.083C162.12 49.735 162.522 49.465 162.984 49.273C163.452 49.081 163.956 48.985 164.496 48.985C165.036 48.985 165.537 49.081 165.999 49.273C166.467 49.465 166.872 49.735 167.214 50.083C167.556 50.425 167.823 50.833 168.015 51.307C168.213 51.775 168.312 52.288 168.312 52.846C168.312 53.404 168.213 53.92 168.015 54.394C167.823 54.862 167.556 55.27 167.214 55.618C166.872 55.96 166.467 56.227 165.999 56.419C165.537 56.611 165.036 56.707 164.496 56.707C163.956 56.707 163.452 56.611 162.984 56.419C162.522 56.227 162.12 55.96 161.778 55.618C161.436 55.27 161.166 54.862 160.968 54.394ZM161.625 51.496C161.457 51.898 161.373 52.348 161.373 52.846C161.373 53.344 161.457 53.794 161.625 54.196C161.793 54.598 162.018 54.937 162.3 55.213C162.588 55.489 162.921 55.702 163.299 55.852C163.677 56.002 164.073 56.077 164.487 56.077C164.907 56.077 165.306 56.002 165.684 55.852C166.062 55.702 166.392 55.489 166.674 55.213C166.962 54.931 167.19 54.592 167.358 54.196C167.532 53.794 167.619 53.344 167.619 52.846C167.619 52.348 167.532 51.901 167.358 51.505C167.19 51.103 166.962 50.764 166.674 50.488C166.392 50.206 166.062 49.99 165.684 49.84C165.306 49.69 164.907 49.615 164.487 49.615C164.073 49.615 163.677 49.69 163.299 49.84C162.921 49.99 162.588 50.203 162.3 50.479C162.018 50.755 161.793 51.094 161.625 51.496ZM170.646 53.845C170.646 54.331 170.61 54.802 170.538 55.258C170.466 55.708 170.367 56.134 170.241 56.536C170.121 56.944 169.986 57.316 169.836 57.652C169.686 57.994 169.521 58.309 169.341 58.597H168.675C168.897 58.195 169.083 57.826 169.233 57.49C169.383 57.16 169.512 56.803 169.62 56.419C169.734 56.035 169.824 55.63 169.89 55.204C169.962 54.772 169.998 54.319 169.998 53.845C169.998 53.371 169.962 52.921 169.89 52.495C169.824 52.063 169.734 51.655 169.62 51.271C169.512 50.887 169.383 50.527 169.233 50.191C169.083 49.855 168.897 49.486 168.675 49.084H169.341C169.521 49.372 169.686 49.687 169.836 50.029C169.986 50.365 170.121 50.737 170.241 51.145C170.367 51.547 170.466 51.979 170.538 52.441C170.61 52.897 170.646 53.365 170.646 53.845Z" fill="white"/>
<defs>
<clipPath id="clip0_26_1999">
<rect width="30" height="62" fill="white" transform="translate(0 8)"/>
</clipPath>
</defs>
</svg>
