<svg width="498" height="162" viewBox="0 0 498 162" fill="none" xmlns="http://www.w3.org/2000/svg">
<mask id="path-1-outside-1_3_1031" maskUnits="userSpaceOnUse" x="10" y="9" width="100" height="143" fill="black">
<rect fill="white" x="10" y="9" width="100" height="143"/>
<path d="M12.8868 150V11.8182H107.212V38.9418H46.2852V67.2798H101.207V94.4709H46.2852V150H12.8868Z"/>
</mask>
<path d="M12.8868 150H10.8868V152H12.8868V150ZM12.8868 11.8182V9.81818H10.8868V11.8182H12.8868ZM107.212 11.8182H109.212V9.81818H107.212V11.8182ZM107.212 38.9418V40.9418H109.212V38.9418H107.212ZM46.2852 38.9418V36.9418H44.2852V38.9418H46.2852ZM46.2852 67.2798H44.2852V69.2798H46.2852V67.2798ZM101.207 67.2798H103.207V65.2798H101.207V67.2798ZM101.207 94.4709V96.4709H103.207V94.4709H101.207ZM46.2852 94.4709V92.4709H44.2852V94.4709H46.2852ZM46.2852 150V152H48.2852V150H46.2852ZM14.8868 150V11.8182H10.8868V150H14.8868ZM12.8868 13.8182H107.212V9.81818H12.8868V13.8182ZM105.212 11.8182V38.9418H109.212V11.8182H105.212ZM107.212 36.9418H46.2852V40.9418H107.212V36.9418ZM44.2852 38.9418V67.2798H48.2852V38.9418H44.2852ZM46.2852 69.2798H101.207V65.2798H46.2852V69.2798ZM99.2071 67.2798V94.4709H103.207V67.2798H99.2071ZM101.207 92.4709H46.2852V96.4709H101.207V92.4709ZM44.2852 94.4709V150H48.2852V94.4709H44.2852ZM46.2852 148H12.8868V152H46.2852V148Z" fill="white" mask="url(#path-1-outside-1_3_1031)"/>
<mask id="path-3-outside-2_3_1031" maskUnits="userSpaceOnUse" x="134.333" y="9" width="102" height="143" fill="black">
<rect fill="white" x="134.333" y="9" width="102" height="143"/>
<path d="M137.159 150V11.8182H233.508V38.9418H170.557V67.2798H228.583V94.4709H170.557V122.876H233.508V150H137.159Z"/>
</mask>
<path d="M137.159 150H135.159V152H137.159V150ZM137.159 11.8182V9.81818H135.159V11.8182H137.159ZM233.508 11.8182H235.508V9.81818H233.508V11.8182ZM233.508 38.9418V40.9418H235.508V38.9418H233.508ZM170.557 38.9418V36.9418H168.557V38.9418H170.557ZM170.557 67.2798H168.557V69.2798H170.557V67.2798ZM228.583 67.2798H230.583V65.2798H228.583V67.2798ZM228.583 94.4709V96.4709H230.583V94.4709H228.583ZM170.557 94.4709V92.4709H168.557V94.4709H170.557ZM170.557 122.876H168.557V124.876H170.557V122.876ZM233.508 122.876H235.508V120.876H233.508V122.876ZM233.508 150V152H235.508V150H233.508ZM139.159 150V11.8182H135.159V150H139.159ZM137.159 13.8182H233.508V9.81818H137.159V13.8182ZM231.508 11.8182V38.9418H235.508V11.8182H231.508ZM233.508 36.9418H170.557V40.9418H233.508V36.9418ZM168.557 38.9418V67.2798H172.557V38.9418H168.557ZM170.557 69.2798H228.583V65.2798H170.557V69.2798ZM226.583 67.2798V94.4709H230.583V67.2798H226.583ZM228.583 92.4709H170.557V96.4709H228.583V92.4709ZM168.557 94.4709V122.876H172.557V94.4709H168.557ZM170.557 124.876H233.508V120.876H170.557V124.876ZM231.508 122.876V150H235.508V122.876H231.508ZM233.508 148H137.159V152H233.508V148Z" fill="white" mask="url(#path-3-outside-2_3_1031)"/>
<mask id="path-5-outside-3_3_1031" maskUnits="userSpaceOnUse" x="257.667" y="9" width="115" height="143" fill="black">
<rect fill="white" x="257.667" y="9" width="115" height="143"/>
<path d="M260.039 150V11.8182H317.66C328.005 11.8182 336.664 13.2801 343.636 16.2038C350.653 19.1276 355.916 23.2209 359.425 28.4837C362.978 33.7464 364.755 39.8414 364.755 46.7685C364.755 52.0312 363.653 56.7318 361.449 60.87C359.245 64.9633 356.208 68.3594 352.34 71.0582C348.472 73.7571 343.996 75.6463 338.913 76.7259V78.0753C344.491 78.3452 349.641 79.852 354.364 82.5959C359.132 85.3397 362.956 89.1631 365.834 94.066C368.713 98.924 370.153 104.682 370.153 111.339C370.153 118.761 368.263 125.395 364.485 131.243C360.707 137.045 355.241 141.634 348.089 145.007C340.937 148.336 332.256 150 322.045 150H260.039ZM293.437 123.079H314.084C321.326 123.079 326.656 121.707 330.074 118.963C333.538 116.219 335.27 112.396 335.27 107.493C335.27 103.939 334.438 100.881 332.773 98.3168C331.109 95.7079 328.747 93.7062 325.689 92.3118C322.63 90.8724 318.964 90.1527 314.691 90.1527H293.437V123.079ZM293.437 68.6293H311.925C315.568 68.6293 318.807 68.022 321.64 66.8075C324.474 65.593 326.678 63.8388 328.253 61.5447C329.872 59.2507 330.682 56.4844 330.682 53.2457C330.682 48.6127 329.04 44.9692 325.756 42.3153C322.473 39.6615 318.042 38.3345 312.464 38.3345H293.437V68.6293Z"/>
</mask>
<path d="M260.039 150H258.039V152H260.039V150ZM260.039 11.8182V9.81818H258.039V11.8182H260.039ZM343.636 16.2038L342.863 18.0482L342.867 18.05L343.636 16.2038ZM359.425 28.4837L357.76 29.5931L357.767 29.6028L359.425 28.4837ZM361.449 60.87L363.21 61.8182L363.214 61.8102L361.449 60.87ZM352.34 71.0582L351.196 69.418L352.34 71.0582ZM338.913 76.7259L338.498 74.7695L336.913 75.106V76.7259H338.913ZM338.913 78.0753H336.913V79.9808L338.817 80.0729L338.913 78.0753ZM354.364 82.5959L353.36 84.3252L353.367 84.3293L354.364 82.5959ZM365.834 94.066L364.11 95.0787L364.114 95.0857L365.834 94.066ZM364.485 131.243L366.161 132.334L366.165 132.328L364.485 131.243ZM348.089 145.007L348.933 146.82L348.943 146.816L348.089 145.007ZM293.437 123.079H291.437V125.079H293.437V123.079ZM330.074 118.963L328.832 117.395L328.823 117.403L330.074 118.963ZM332.773 98.3168L331.087 99.3924L331.091 99.3991L331.096 99.4057L332.773 98.3168ZM325.689 92.3118L324.837 94.1214L324.848 94.1266L324.859 94.1316L325.689 92.3118ZM293.437 90.1527V88.1527H291.437V90.1527H293.437ZM293.437 68.6293H291.437V70.6293H293.437V68.6293ZM328.253 61.5447L326.619 60.3914L326.611 60.4022L326.604 60.4131L328.253 61.5447ZM325.756 42.3153L327.013 40.7599L325.756 42.3153ZM293.437 38.3345V36.3345H291.437V38.3345H293.437ZM262.039 150V11.8182H258.039V150H262.039ZM260.039 13.8182H317.66V9.81818H260.039V13.8182ZM317.66 13.8182C327.831 13.8182 336.208 15.2575 342.863 18.0482L344.41 14.3594C337.12 11.3026 328.179 9.81818 317.66 9.81818V13.8182ZM342.867 18.05C349.594 20.853 354.512 24.7202 357.76 29.5931L361.089 27.3743C357.32 21.7216 351.712 17.4022 344.405 14.3577L342.867 18.05ZM357.767 29.6028C361.077 34.505 362.755 40.2024 362.755 46.7685H366.755C366.755 39.4804 364.879 32.9879 361.082 27.3645L357.767 29.6028ZM362.755 46.7685C362.755 51.7441 361.715 56.1149 359.683 59.9298L363.214 61.8102C365.59 57.3486 366.755 52.3184 366.755 46.7685H362.755ZM359.688 59.9218C357.634 63.7352 354.811 66.8956 351.196 69.418L353.484 72.6985C357.606 69.8231 360.855 66.1914 363.21 61.8182L359.688 59.9218ZM351.196 69.418C347.568 71.9489 343.346 73.7398 338.498 74.7695L339.329 78.6822C344.646 77.5528 349.375 75.5653 353.484 72.6985L351.196 69.418ZM336.913 76.7259V78.0753H340.913V76.7259H336.913ZM338.817 80.0729C344.082 80.3277 348.92 81.7459 353.36 84.3252L355.369 80.8665C350.363 77.9582 344.9 76.3626 339.01 76.0776L338.817 80.0729ZM353.367 84.3293C357.823 86.8941 361.4 90.4646 364.11 95.0787L367.559 93.0534C364.511 87.8616 360.441 83.7853 355.362 80.8624L353.367 84.3293ZM364.114 95.0857C366.779 99.5836 368.153 104.976 368.153 111.339H372.153C372.153 104.388 370.647 98.2644 367.555 93.0464L364.114 95.0857ZM368.153 111.339C368.153 118.402 366.361 124.655 362.805 130.157L366.165 132.328C370.166 126.136 372.153 119.119 372.153 111.339H368.153ZM362.809 130.152C359.26 135.601 354.101 139.96 347.236 143.198L348.943 146.816C356.381 143.307 362.153 138.49 366.161 132.334L362.809 130.152ZM347.245 143.194C340.424 146.369 332.047 148 322.045 148V152C332.465 152 341.451 150.303 348.933 146.82L347.245 143.194ZM322.045 148H260.039V152H322.045V148ZM293.437 125.079H314.084V121.079H293.437V125.079ZM314.084 125.079C321.507 125.079 327.386 123.685 331.326 120.523L328.823 117.403C325.926 119.728 321.144 121.079 314.084 121.079V125.079ZM331.316 120.531C335.316 117.363 337.27 112.93 337.27 107.493H333.27C333.27 111.861 331.76 115.076 328.832 117.395L331.316 120.531ZM337.27 107.493C337.27 103.617 336.358 100.166 334.451 97.2278L331.096 99.4057C332.517 101.595 333.27 104.262 333.27 107.493H337.27ZM334.459 97.2411C332.57 94.2786 329.897 92.0322 326.518 90.492L324.859 94.1316C327.598 95.3802 329.648 97.1371 331.087 99.3924L334.459 97.2411ZM326.54 90.5022C323.155 88.9088 319.183 88.1527 314.691 88.1527V92.1527C318.745 92.1527 322.106 92.836 324.837 94.1214L326.54 90.5022ZM314.691 88.1527H293.437V92.1527H314.691V88.1527ZM291.437 90.1527V123.079H295.437V90.1527H291.437ZM293.437 70.6293H311.925V66.6293H293.437V70.6293ZM311.925 70.6293C315.79 70.6293 319.305 69.9846 322.428 68.6458L320.853 64.9692C318.309 66.0595 315.346 66.6293 311.925 66.6293V70.6293ZM322.428 68.6458C325.571 67.2988 328.09 65.316 329.902 62.6764L326.604 60.4131C325.266 62.3616 323.377 63.8873 320.853 64.9692L322.428 68.6458ZM329.887 62.6981C331.779 60.0168 332.682 56.8319 332.682 53.2457H328.682C328.682 56.1368 327.965 58.4846 326.619 60.3914L329.887 62.6981ZM332.682 53.2457C332.682 48.0756 330.817 43.8337 327.013 40.7599L324.499 43.8708C327.263 46.1048 328.682 49.1497 328.682 53.2457H332.682ZM327.013 40.7599C323.274 37.7375 318.352 36.3345 312.464 36.3345V40.3345C317.732 40.3345 321.671 41.5854 324.499 43.8708L327.013 40.7599ZM312.464 36.3345H293.437V40.3345H312.464V36.3345ZM291.437 38.3345V68.6293H295.437V38.3345H291.437Z" fill="white" mask="url(#path-5-outside-3_3_1031)"/>
<mask id="path-7-outside-4_3_1031" maskUnits="userSpaceOnUse" x="385" y="7" width="109" height="145" fill="black">
<rect fill="white" x="385" y="7" width="109" height="145"/>
<path d="M389.607 150V125.98L440.008 81.8537C443.787 78.4351 447.003 75.3089 449.657 72.4751C452.311 69.5964 454.335 66.7176 455.729 63.8388C457.124 60.915 457.821 57.7438 457.821 54.3253C457.821 50.5019 456.989 47.2408 455.324 44.5419C453.66 41.7981 451.366 39.6839 448.442 38.1996C445.519 36.7152 442.168 35.973 438.389 35.973C434.566 35.973 431.215 36.7602 428.336 38.3345C425.457 39.8639 423.208 42.0904 421.589 45.0142C420.014 47.938 419.227 51.4915 419.227 55.6747H387.583C387.583 46.2737 389.697 38.1546 393.925 31.3175C398.154 24.4803 404.091 19.2176 411.738 15.5291C419.43 11.7957 428.358 9.92897 438.524 9.92897C449.005 9.92897 458.113 11.6832 465.85 15.1918C473.587 18.7003 479.569 23.6032 483.797 29.9006C488.071 36.1529 490.207 43.4174 490.207 51.6939C490.207 56.9567 489.15 62.1745 487.036 67.3473C484.922 72.5201 481.121 78.2327 475.633 84.4851C470.191 90.7375 462.454 98.2268 452.423 106.953L435.893 122.202V123.079H491.894V150H389.607Z"/>
</mask>
<path d="M389.607 150H387.607V152H389.607V150ZM389.607 125.98L388.29 124.475L387.607 125.073V125.98H389.607ZM440.008 81.8537L441.326 83.3585L441.338 83.3477L441.35 83.3368L440.008 81.8537ZM449.657 72.4751L451.117 73.8422L451.122 73.8365L451.127 73.8307L449.657 72.4751ZM455.729 63.8388L457.529 64.7106L457.535 64.6997L455.729 63.8388ZM455.324 44.5419L453.614 45.5791L453.618 45.5854L453.622 45.5917L455.324 44.5419ZM448.442 38.1996L447.537 39.9829V39.9829L448.442 38.1996ZM428.336 38.3345L429.274 40.1007L429.285 40.0951L429.295 40.0893L428.336 38.3345ZM421.589 45.0142L419.839 44.0452L419.833 44.0556L419.828 44.066L421.589 45.0142ZM419.227 55.6747V57.6747H421.227V55.6747H419.227ZM387.583 55.6747H385.583V57.6747H387.583V55.6747ZM393.925 31.3175L395.626 32.3694L393.925 31.3175ZM411.738 15.5291L412.607 17.3305L412.611 17.3284L411.738 15.5291ZM465.85 15.1918L466.676 13.3703V13.3703L465.85 15.1918ZM483.798 29.9006L482.137 31.0154L482.142 31.0223L482.146 31.0291L483.798 29.9006ZM487.036 67.3473L485.185 66.5907L487.036 67.3473ZM475.633 84.4851L474.13 83.1658L474.125 83.1719L475.633 84.4851ZM452.423 106.953L451.111 105.444L451.089 105.463L451.067 105.483L452.423 106.953ZM435.893 122.202L434.537 120.732L433.893 121.326V122.202H435.893ZM435.893 123.079H433.893V125.079H435.893V123.079ZM491.894 123.079H493.894V121.079H491.894V123.079ZM491.894 150V152H493.894V150H491.894ZM391.607 150V125.98H387.607V150H391.607ZM390.925 127.485L441.326 83.3585L438.691 80.3489L388.29 124.475L390.925 127.485ZM441.35 83.3368C445.158 79.8919 448.416 76.7265 451.117 73.8422L448.197 71.108C445.59 73.8914 442.416 76.9784 438.667 80.3706L441.35 83.3368ZM451.127 73.8307C453.886 70.8388 456.033 67.8003 457.529 64.7106L453.929 62.9669C452.637 65.6348 450.736 68.354 448.186 71.1195L451.127 73.8307ZM457.535 64.6997C459.064 61.4922 459.821 58.0249 459.821 54.3253H455.821C455.821 57.4628 455.183 60.3378 453.924 62.9778L457.535 64.6997ZM459.821 54.3253C459.821 50.2079 458.922 46.566 457.027 43.4921L453.622 45.5917C455.055 47.9155 455.821 50.7959 455.821 54.3253H459.821ZM457.035 43.5047C455.172 40.4347 452.596 38.0656 449.348 36.4162L447.537 39.9829C450.136 41.3023 452.148 43.1614 453.614 45.5791L457.035 43.5047ZM449.348 36.4162C446.104 34.7692 442.434 33.973 438.389 33.973V37.973C441.901 37.973 444.934 38.6612 447.537 39.9829L449.348 36.4162ZM438.389 33.973C434.286 33.973 430.595 34.8197 427.376 36.5798L429.295 40.0893C431.835 38.7006 434.845 37.973 438.389 37.973V33.973ZM427.398 36.5683C424.168 38.2841 421.641 40.7918 419.839 44.0452L423.338 45.9832C424.775 43.389 426.746 41.4437 429.274 40.1007L427.398 36.5683ZM419.828 44.066C418.061 47.3473 417.227 51.2447 417.227 55.6747H421.227C421.227 51.7382 421.968 48.5286 423.35 45.9624L419.828 44.066ZM419.227 53.6747H387.583V57.6747H419.227V53.6747ZM389.583 55.6747C389.583 46.5814 391.625 38.8402 395.626 32.3694L392.224 30.2655C387.77 37.469 385.583 45.966 385.583 55.6747H389.583ZM395.626 32.3694C399.643 25.8748 405.283 20.8632 412.607 17.3305L410.869 13.7277C402.899 17.5719 396.664 23.0859 392.224 30.2655L395.626 32.3694ZM412.611 17.3284C419.984 13.7497 428.604 11.929 438.524 11.929V7.92897C428.112 7.92897 418.875 9.84164 410.865 13.7299L412.611 17.3284ZM438.524 11.929C448.785 11.929 457.6 13.6465 465.024 17.0132L466.676 13.3703C458.627 9.71996 449.225 7.92897 438.524 7.92897V11.929ZM465.024 17.0132C472.464 20.3872 478.14 25.0625 482.137 31.0154L485.458 28.7857C480.998 22.1439 474.709 17.0133 466.676 13.3703L465.024 17.0132ZM482.146 31.0291C486.171 36.9181 488.207 43.781 488.207 51.6939H492.207C492.207 43.0538 489.97 35.3878 485.449 28.772L482.146 31.0291ZM488.207 51.6939C488.207 56.6814 487.207 61.643 485.185 66.5907L488.887 68.1039C491.094 62.706 492.207 57.2319 492.207 51.6939H488.207ZM485.185 66.5907C483.185 71.4836 479.536 77.0069 474.13 83.1658L477.137 85.8044C482.706 79.4586 486.659 73.5567 488.887 68.1039L485.185 66.5907ZM474.125 83.1719C468.768 89.3259 461.108 96.747 451.111 105.444L453.736 108.462C463.8 99.7066 471.614 92.149 477.142 85.7982L474.125 83.1719ZM451.067 105.483L434.537 120.732L437.249 123.672L453.779 108.423L451.067 105.483ZM433.893 122.202V123.079H437.893V122.202H433.893ZM435.893 125.079H491.894V121.079H435.893V125.079ZM489.894 123.079V150H493.894V123.079H489.894ZM491.894 148H389.607V152H491.894V148Z" fill="white" mask="url(#path-7-outside-4_3_1031)"/>
</svg>
