<svg width="314" height="76" viewBox="0 0 314 76" fill="none" xmlns="http://www.w3.org/2000/svg">
<g clip-path="url(#clip0_336_3145)">
<path d="M70.4357 22.5466V23.8707H67.454H66.6408C64.1469 23.8707 62.4844 22.3841 62.4844 20.133V20.121C62.4844 17.8459 64.2072 16.3472 66.8215 16.3472H67.46V15.6731H68.7852V22.5526H70.4357V22.5466ZM67.454 17.6593H66.5444C64.8939 17.6593 63.7373 18.6042 63.7373 20.121V20.133C63.7373 21.5956 64.8999 22.5406 66.5444 22.5406H67.454V17.6593ZM64.4602 13.7109C64.4602 13.1993 64.8818 12.8322 65.4059 12.8322C65.948 12.8322 66.3516 13.1993 66.3516 13.7109C66.3516 14.2647 65.9179 14.5897 65.4059 14.5897C64.9119 14.5897 64.4602 14.2647 64.4602 13.7109ZM66.966 13.7109C66.966 13.1993 67.3877 12.8322 67.9118 12.8322C68.4539 12.8322 68.8575 13.1993 68.8575 13.7109C68.8575 14.2647 68.4238 14.5897 67.9118 14.5897C67.4178 14.5897 66.966 14.2647 66.966 13.7109ZM74.5319 22.5466V23.8707H70.1707V22.5466H71.5501V16.3472H72.8753V22.5466H74.5319ZM73.1946 26.2602C73.1946 26.8441 72.7368 27.151 72.2489 27.151C71.7369 27.151 71.2851 26.838 71.2851 26.2602C71.2851 25.7486 71.7067 25.3935 72.2489 25.3935C72.7609 25.3935 73.1946 25.7426 73.1946 26.2602ZM78.8027 22.5466V23.8707H74.2668V22.5466H75.827V12.8984H77.1522V22.5526H78.8027V22.5466ZM90.2418 22.5466V23.8707H78.5256V22.5466H79.9593V12.79H81.2845V16.3532H84.6156C87.2179 16.3532 88.6094 17.6954 88.5973 20.1451L88.5853 22.5526H90.2418V22.5466ZM84.7301 17.6773H81.2905V22.5526H87.2661V19.9224C87.2781 18.3515 86.2601 17.6773 84.7301 17.6773ZM93.4043 12.8984V23.8768H89.8021V22.5526H92.0791V12.8984H93.4043ZM95.7656 12.8984H97.0908V23.8768H95.7656V12.8984ZM112.367 22.5466V23.8707H105.47C102.735 23.8707 101.458 22.5466 101.458 20.0668V17.5209H102.783V19.9284C102.783 21.7942 103.934 22.5406 105.735 22.5406H109.379V16.3412H110.704V22.5406H112.367V22.5466ZM107.656 26.2422C107.656 26.826 107.199 27.133 106.711 27.133C106.199 27.133 105.747 26.82 105.747 26.2422C105.747 25.7306 106.169 25.3755 106.711 25.3755C107.223 25.3755 107.656 25.7306 107.656 26.2422ZM111.969 26.2422C111.969 25.7306 112.391 25.3755 112.915 25.3755C113.457 25.3755 113.861 25.7245 113.861 26.2422C113.861 26.7959 113.427 27.1209 112.915 27.1209C112.415 27.1269 111.969 26.8019 111.969 26.2422ZM112.108 22.5466H114.734V16.3472H116.06V23.8707H112.102V22.5466H112.108ZM114.475 26.2422C114.475 25.7306 114.897 25.3755 115.421 25.3755C115.963 25.3755 116.367 25.7245 116.367 26.2422C116.367 26.7959 115.933 27.1209 115.421 27.1209C114.927 27.1269 114.475 26.8019 114.475 26.2422ZM117.409 26.7177L117.3 25.5681C117.704 25.6222 118.005 25.6463 118.343 25.6463C119.144 25.6463 119.644 25.2551 119.644 24.1416V16.3472H120.969V23.943C120.969 26.176 120.132 26.8561 118.463 26.8561C118.108 26.8561 117.746 26.8019 117.409 26.7177ZM130.047 22.5466V23.8707H122.258V22.5466H127.137V19.6876C127.137 18.3093 126.445 17.6713 125.174 17.6713H124.662V16.3472H124.987C127.318 16.3472 128.402 17.5269 128.402 19.802V22.5526H130.047V22.5466ZM129.782 22.5466H132.408V16.3472H133.733V23.8707H129.776V22.5466H129.782ZM130.962 13.9818C130.962 13.4702 131.384 13.103 131.908 13.103C132.45 13.103 132.854 13.4702 132.854 13.9818C132.854 14.5355 132.42 14.8605 131.908 14.8605C131.408 14.8605 130.962 14.5355 130.962 13.9818ZM133.468 13.9818C133.468 13.4702 133.89 13.103 134.414 13.103C134.956 13.103 135.36 13.4702 135.36 13.9818C135.36 14.5355 134.926 14.8605 134.414 14.8605C133.914 14.8605 133.468 14.5355 133.468 13.9818ZM142.727 16.3472V23.7383C142.727 26.0676 141.673 26.8501 139.679 26.8501C138.95 26.8501 138.299 26.7538 137.522 26.4829L137.281 25.0745C138.137 25.3694 138.853 25.5079 139.625 25.5079C140.679 25.5079 141.402 25.1287 141.402 23.9911V23.8707H140.588C138.094 23.8707 136.432 22.3841 136.432 20.133V20.121C136.432 17.8459 138.155 16.3472 140.769 16.3472H142.727ZM141.402 17.6593H140.492C138.841 17.6593 137.685 18.6042 137.685 20.121V20.133C137.685 21.5956 138.847 22.5406 140.492 22.5406H141.402V17.6593ZM160.738 22.5466V23.8707H157.756V17.6051H156.431C155.196 17.6051 154.6 18.3755 154.6 19.5131V25.562H150.835C148.136 25.562 146.823 24.274 146.823 21.7581V18.7788H148.148V21.6197C148.148 23.5156 149.341 24.2319 151.1 24.2319H153.268V19.7238C153.256 17.4486 154.503 16.3412 156.642 16.3412H159.081V22.5406H160.738V22.5466ZM151.485 27.9395C151.485 28.4932 151.052 28.8182 150.54 28.8182C150.04 28.8182 149.594 28.4932 149.594 27.9395C149.594 27.4279 150.015 27.0728 150.54 27.0728C151.082 27.0728 151.485 27.4219 151.485 27.9395ZM153.991 27.9395C153.991 28.4932 153.557 28.8182 153.045 28.8182C152.545 28.8182 152.1 28.4932 152.1 27.9395C152.1 27.4279 152.521 27.0728 153.045 27.0728C153.588 27.0728 153.991 27.4219 153.991 27.9395ZM169.599 22.5466V23.8707H167.876H167.81C167.201 23.8707 166.388 23.8707 165.804 23.8707H160.479V22.5466H162.497C161.943 21.9267 161.641 21.096 161.641 20.1391V20.127C161.641 17.8519 163.364 16.3532 165.978 16.3532H167.942V22.5526H169.599V22.5466ZM166.617 22.5466V17.6593H165.707C164.057 17.6593 162.9 18.6042 162.9 20.121V20.133C162.9 21.5956 164.063 22.5406 165.707 22.5406H166.617V22.5466ZM165.075 13.8855C165.075 13.3558 165.497 13.0067 166.039 13.0067C166.551 13.0067 166.984 13.3558 166.984 13.8855C166.984 14.4512 166.527 14.7642 166.039 14.7642C165.521 14.7642 165.075 14.4512 165.075 13.8855ZM175.255 23.8768H169.334V22.5526H171.502V16.3532H172.827V22.5526H175.255V23.8768ZM171.882 26.2422C171.882 26.7959 171.448 27.1209 170.936 27.1209C170.436 27.1209 169.99 26.7959 169.99 26.2422C169.99 25.7306 170.412 25.3755 170.936 25.3755C171.472 25.3755 171.882 25.7306 171.882 26.2422ZM174.388 26.2422C174.388 26.7959 173.954 27.1209 173.442 27.1209C172.942 27.1209 172.496 26.7959 172.496 26.2422C172.496 25.7306 172.918 25.3755 173.442 25.3755C173.978 25.3755 174.388 25.7306 174.388 26.2422ZM185.068 20.1391L185.056 23.8768H174.99V22.5526H176.424V12.79H177.749V16.3532H181.08C183.682 16.3472 185.08 17.6894 185.068 20.1391ZM181.188 17.6773H177.749V22.5526H183.724V19.9224C183.736 18.3515 182.724 17.6773 181.188 17.6773ZM180.188 13.8855C180.188 13.3558 180.61 13.0067 181.152 13.0067C181.664 13.0067 182.098 13.3558 182.098 13.8855C182.098 14.4512 181.64 14.7642 181.152 14.7642C180.634 14.7642 180.188 14.4512 180.188 13.8855ZM194.519 23.8768H192.868C192.826 26.0977 191.772 26.8561 189.82 26.8561C189.092 26.8561 188.441 26.7598 187.664 26.4889L187.423 25.0805C188.278 25.3755 188.995 25.5139 189.766 25.5139C190.82 25.5139 191.543 25.1347 191.543 23.9971V23.8768H190.73C188.236 23.8768 186.574 22.3901 186.574 20.1391V20.127C186.574 17.8519 188.296 16.3532 190.911 16.3532H192.874V22.5526H194.525V23.8768H194.519ZM191.537 22.5466V17.6593H190.628C188.977 17.6593 187.821 18.6042 187.821 20.121V20.133C187.821 21.5956 188.983 22.5406 190.628 22.5406H191.537V22.5466ZM197.681 12.8984V23.8768H194.079V22.5526H196.356V12.8984H197.681ZM200.043 12.8984H201.368V23.8768H200.043V12.8984ZM213.674 22.5466V23.8707H210.693H209.88C207.386 23.8707 205.723 22.3841 205.723 20.133V20.121C205.723 17.8459 207.446 16.3472 210.06 16.3472H210.699V15.6731H212.024V22.5526H213.674V22.5466ZM210.693 17.6593H209.783C208.133 17.6593 206.976 18.6042 206.976 20.121V20.133C206.976 21.5956 208.139 22.5406 209.783 22.5406H210.693V17.6593ZM219.331 23.8768H213.409V22.5526H215.578V16.3532H216.903V22.5526H219.331V23.8768ZM215.957 26.2422C215.957 26.7959 215.524 27.1209 215.012 27.1209C214.512 27.1209 214.066 26.7959 214.066 26.2422C214.066 25.7306 214.488 25.3755 215.012 25.3755C215.548 25.3755 215.957 25.7306 215.957 26.2422ZM218.463 26.2422C218.463 26.7959 218.03 27.1209 217.518 27.1209C217.018 27.1209 216.572 26.7959 216.572 26.2422C216.572 25.7306 216.994 25.3755 217.518 25.3755C218.054 25.3755 218.463 25.7306 218.463 26.2422ZM226.15 20.1812C226.15 21.3729 225.879 22.8596 225.583 23.8768H219.066V22.5526H224.577C224.764 21.7822 224.891 20.8312 224.891 20.115C224.891 18.4778 223.957 17.4727 222.439 17.4727C221.668 17.4727 221.114 17.6352 220.27 18.1348L219.795 16.919C220.77 16.4074 221.596 16.1486 222.529 16.1486C224.873 16.1486 226.15 17.6593 226.15 20.1812ZM223.656 26.2422C223.656 26.826 223.198 27.133 222.71 27.133C222.198 27.133 221.746 26.82 221.746 26.2422C221.746 25.7306 222.168 25.3755 222.71 25.3755C223.222 25.3755 223.656 25.7306 223.656 26.2422ZM235.559 23.8768H233.908C233.866 26.0977 232.812 26.8561 230.86 26.8561C230.131 26.8561 229.481 26.7598 228.704 26.4889L228.463 25.0805C229.318 25.3755 230.035 25.5139 230.806 25.5139C231.86 25.5139 232.583 25.1347 232.583 23.9971V23.8768H231.77C229.276 23.8768 227.613 22.3901 227.613 20.1391V20.127C227.613 17.8519 229.336 16.3532 231.951 16.3532H233.914V22.5526H235.565V23.8768H235.559ZM232.577 22.5466V17.6593H231.667C230.017 17.6593 228.86 18.6042 228.86 20.121V20.133C228.86 21.5956 230.023 22.5406 231.667 22.5406H232.577V22.5466ZM241.209 23.8768H235.288V22.5526H237.456V16.3532H238.781V22.5526H241.209V23.8768ZM235.956 13.9818C235.956 13.4702 236.378 13.103 236.902 13.103C237.444 13.103 237.848 13.4702 237.848 13.9818C237.848 14.5355 237.414 14.8605 236.902 14.8605C236.402 14.8605 235.956 14.5355 235.956 13.9818ZM238.462 13.9818C238.462 13.4702 238.884 13.103 239.408 13.103C239.95 13.103 240.354 13.4702 240.354 13.9818C240.354 14.5355 239.92 14.8605 239.408 14.8605C238.908 14.8605 238.462 14.5355 238.462 13.9818ZM244.371 12.8984V23.8768H240.769V22.5526H243.046V12.8984H244.371ZM246.733 12.8984H248.058V23.8768H246.733V12.8984ZM263.334 22.5466V23.8707H256.437C253.702 23.8707 252.425 22.5466 252.425 20.0668V17.5209H253.75V19.9284C253.75 21.7942 254.901 22.5406 256.702 22.5406H260.346V16.3412H261.672V22.5406H263.334V22.5466ZM258.618 26.2422C258.618 26.826 258.16 27.133 257.672 27.133C257.16 27.133 256.708 26.82 256.708 26.2422C256.708 25.7306 257.13 25.3755 257.672 25.3755C258.184 25.3755 258.618 25.7306 258.618 26.2422ZM268.991 23.8768H263.069V22.5526H265.238V16.3532H266.563V22.5526H268.991V23.8768ZM263.738 13.9818C263.738 13.4702 264.16 13.103 264.684 13.103C265.226 13.103 265.629 13.4702 265.629 13.9818C265.629 14.5355 265.196 14.8605 264.684 14.8605C264.184 14.8605 263.738 14.5355 263.738 13.9818ZM266.244 13.9818C266.244 13.4702 266.665 13.103 267.189 13.103C267.732 13.103 268.135 13.4702 268.135 13.9818C268.135 14.5355 267.701 14.8605 267.189 14.8605C266.689 14.8605 266.244 14.5355 266.244 13.9818ZM278.604 22.5466V23.8707H268.726V22.5466H275.593V20.2594C275.593 18.9473 274.876 18.3394 273.683 18.3394H269.942C269.725 18.0264 269.521 17.569 269.497 17.0153L271.611 12.8984H273.237L270.99 16.9972H273.551C275.797 16.9972 276.954 18.1227 276.954 20.452V22.5526H278.604V22.5466ZM286.953 21.3428V21.3549C286.953 23.7383 285.466 25.3454 283.243 25.3454H283.231C281.918 25.3454 280.857 24.8037 280.207 23.8707H278.339V22.5466H279.61C279.514 22.1794 279.478 21.7762 279.478 21.3549V21.3428C279.478 18.8932 280.984 17.2681 283.231 17.2681H283.243C285.466 17.2681 286.953 18.8932 286.953 21.3428ZM285.628 21.3187C285.628 19.6937 284.682 18.5982 283.243 18.5982H283.231C281.779 18.5982 280.821 19.6937 280.821 21.3187V21.3308C280.821 22.9438 281.785 24.0092 283.231 24.0092H283.243C284.676 24.0092 285.628 22.9258 285.628 21.3308V21.3187Z" fill="white"/>
<path d="M44.2144 0H42.9072V76H44.2144V0Z" fill="white"/>
<path d="M10.4994 52.7251L11.6559 49.9264L8.86092 48.7647L8.36698 47.585L3.49376 49.6013L3.07812 53.4775L6.11409 55.9211L10.9873 53.9048L10.4994 52.7251Z" fill="white"/>
<path d="M15.8425 58.9486H18.4207V56.3725L17.0653 55.0123L21.2277 50.8532L15.7883 53.0983L15.0474 51.3287L12.668 50.3416L11.6801 52.7251L12.409 54.4947L7.08398 56.7036L9.51758 58.6717L10.4031 61.6691L14.4811 57.5944L15.8425 58.9486Z" fill="white"/>
<path d="M18.4207 63.0715V60.038H15.3907L14.4811 59.1352L10.7524 62.8609L11.8548 66.5986L15.5955 67.7L19.3242 63.9743L18.4207 63.0715Z" fill="white"/>
<path d="M8.22852 40.5911V42.5111H2.45776L3.95165 45.2557L3.62637 48.3675L8.95739 46.1585L9.69229 47.9281L12.0777 48.9152L13.0656 46.5377L12.3307 44.7622L17.7762 42.5111H11.8789V40.5911L10.0537 38.7674L8.22852 40.5911Z" fill="white"/>
<path d="M25.7394 66.7791L28.1248 65.792L27.1369 63.4086L25.3659 62.6743L27.6188 57.2332L23.4504 61.3983L22.095 60.038H19.5168V62.6201L20.8722 63.9743L16.7881 68.0551L19.7939 68.9399L21.7577 71.3715L23.9684 66.0448L25.7394 66.7791Z" fill="white"/>
<path d="M30.9319 42.6977L25.884 47.7415L32.4861 45.015L32.0704 43.6126L30.9319 42.6977Z" fill="white"/>
<path d="M15.8845 50.4921L16.3785 51.6779L23.2456 48.837L29.5765 42.5051H20.6313L13.7521 45.352L14.2461 46.5317L13.0835 49.3305L15.8845 50.4921Z" fill="white"/>
<path d="M22.547 58.9486L23.4505 59.8514L28.7093 54.597L32.1368 46.3391L23.8662 49.7578L18.6074 55.0123L19.511 55.9211V58.9486H22.547Z" fill="white"/>
<path d="M34.8594 46.3993L33.4619 45.99L30.7332 52.5807L35.7811 47.5369L34.8594 46.3993Z" fill="white"/>
<path d="M30.4019 41.4157L30.5585 39.9652L29.8598 38.6831L23.2698 41.4157H30.4019Z" fill="white"/>
<path d="M29.703 69.5959L28.5404 66.7972L25.7394 67.9588L24.5587 67.4653L22.5408 72.3345L24.9924 75.368L28.8717 74.9587L30.8837 70.0895L29.703 69.5959Z" fill="white"/>
<path d="M31.9379 65.3948L29.5525 66.3819L30.5404 68.7653L32.3114 69.4936L30.1067 74.8263L33.2149 74.4953L35.9678 75.988V60.688L33.7089 66.1291L31.9379 65.3948Z" fill="white"/>
<path d="M1.86134 41.4157H7.13814V40.1397L9.2826 37.997L7.13814 35.8543V34.5723H1.86134L0 37.997L1.86134 41.4157Z" fill="white"/>
<path d="M26.7876 62.0844L27.9743 62.572L29.1369 65.3767L31.9379 64.2151L33.1246 64.7026L35.9618 57.8351V48.8911L29.6368 55.2169L26.7876 62.0844Z" fill="white"/>
<path d="M8.36698 28.409L8.8549 27.2232L11.662 26.0616L10.4994 23.2628L10.9873 22.0831L6.11409 20.0668L3.07812 22.5165L3.49376 26.3926L8.36698 28.409Z" fill="white"/>
<path d="M11.68 23.2629L12.6679 25.6463L15.0533 24.6592L15.7822 22.8897L21.2277 25.1407L17.0653 20.9757L18.4206 19.6215V17.0394H15.8424L14.4811 18.3996L10.403 14.3188L9.5175 17.3162L7.07788 19.2844L12.4149 21.4933L11.68 23.2629Z" fill="white"/>
<path d="M25.884 28.2465L30.9319 33.2963L32.0704 32.3754L32.4861 30.979L25.884 28.2465Z" fill="white"/>
<path d="M20.6313 33.4829H29.5765L23.2456 27.1571L16.3785 24.3162L15.8906 25.4959L13.0835 26.6515L14.2461 29.4502L13.7582 30.636L20.6313 33.4829Z" fill="white"/>
<path d="M15.3907 15.95H18.4207V12.9165L19.3242 12.0136L15.5955 8.28796L11.8548 9.38941L10.7524 13.1331L14.4811 16.8588L15.3907 15.95Z" fill="white"/>
<path d="M8.22852 35.4029L10.0537 37.2206L11.8789 35.4029V33.4829H17.7762L12.3307 31.2318L13.0656 29.4502L12.0777 27.0728L9.69229 28.0599L8.95739 29.8294L3.62637 27.6265L3.95165 30.7383L2.45776 33.4829H8.22852V35.4029Z" fill="white"/>
<path d="M30.5585 36.0228L30.4019 34.5723H23.2698L29.8598 37.3048L30.5585 36.0228Z" fill="white"/>
<path d="M25.7394 8.02913L28.5404 9.19077L29.703 6.392L30.8837 5.89846L28.8657 1.03523L24.9924 0.625946L22.5408 3.65343L24.5587 8.52268L25.7394 8.02913Z" fill="white"/>
<path d="M30.5404 7.22864L29.5525 9.6121L31.9319 10.5932L33.7149 9.86489L35.9678 15.2999V0L33.221 1.49267L30.1067 1.16766L32.3114 6.49434L30.5404 7.22864Z" fill="white"/>
<path d="M31.938 11.7789L29.1369 10.6172L27.9744 13.416L26.7937 13.9096L29.6369 20.7771L35.9679 27.0969V18.1528L33.1186 11.2914L31.938 11.7789Z" fill="white"/>
<path d="M30.7271 23.4073L33.4679 30.0039L34.8593 29.5886L35.775 28.4511L30.7271 23.4073Z" fill="white"/>
<path d="M23.4505 16.1365L22.547 17.0394H19.511V20.0729L18.6074 20.9757L23.8601 26.2301L32.1368 29.6549L28.7093 21.391L23.4505 16.1365Z" fill="white"/>
<path d="M12.9692 35.8543L10.8247 37.997L12.9692 40.1397V41.4157H20.4145L28.6791 37.997L20.4145 34.5723H12.9692V35.8543Z" fill="white"/>
<path d="M19.5108 13.3739V15.9499H22.095L23.4504 14.5957L27.6188 18.7607L25.3659 13.3197L27.1369 12.5794L28.1248 10.2019L25.7394 9.21485L23.9684 9.94313L21.7577 4.62247L19.7879 7.05408L16.7881 7.93885L20.8722 12.0136L19.5108 13.3739Z" fill="white"/>
<path d="M64.8757 38.1655C64.8757 40.2601 66.2491 41.2532 67.8574 41.2532C68.7309 41.2532 69.4839 40.9944 70.1164 40.5851L70.7248 41.9815C69.9718 42.4389 68.8996 42.7338 67.7852 42.7338C64.9781 42.7338 63.1951 40.7777 63.1951 38.1595C63.1951 35.5413 64.9781 33.5852 67.7852 33.5852C68.8996 33.5852 69.9718 33.8921 70.7248 34.3496L70.1164 35.7339C69.4839 35.3427 68.7309 35.0778 67.8574 35.0778C66.2551 35.0839 64.8757 36.071 64.8757 38.1655Z" fill="white"/>
<path d="M80.0798 42.6074H78.4293L77.6763 40.5249H74.0079L73.267 42.6074H71.6165L74.8934 33.7537H76.8029L80.0798 42.6074ZM74.532 39.0503H77.1523L75.8391 35.3728L74.532 39.0503Z" fill="white"/>
<path d="M84.7481 39.1105H83.1879V42.6014H81.6157V33.7537H84.9348C87.2419 33.7537 88.1696 35.0658 88.1696 36.4261C88.1696 37.4432 87.6877 38.4544 86.3685 38.8938L88.6816 42.6074H86.9106L84.7481 39.1105ZM83.1879 35.2163V37.7502H84.5854C85.742 37.7502 86.507 37.4854 86.507 36.4622C86.507 35.5774 85.8866 35.2163 84.5854 35.2163H83.1879Z" fill="white"/>
<path d="M90.4888 33.7537H96.1451V35.2163H92.061V37.3229H95.7656V38.8095H92.061V41.1448H96.1692V42.6074H90.4888V33.7537Z" fill="white"/>
<path d="M98.3076 33.7537H103.964V35.2163H99.8798V37.3229H103.584V38.8095H99.8798V41.1448H103.988V42.6074H98.3076V33.7537Z" fill="white"/>
<path d="M109.259 39.1105H107.699V42.6014H106.126V33.7537H109.446C111.753 33.7537 112.68 35.0658 112.68 36.4261C112.68 37.4432 112.198 38.4544 110.879 38.8938L113.192 42.6074H111.421L109.259 39.1105ZM107.699 35.2163V37.7502H109.096C110.253 37.7502 111.018 37.4854 111.018 36.4622C111.018 35.5774 110.397 35.2163 109.096 35.2163H107.699Z" fill="white"/>
<path d="M126.095 42.6074H124.445L123.692 40.5249H120.023L119.282 42.6074H117.632L120.909 33.7537H122.818L126.095 42.6074ZM120.547 39.0503H123.168L121.854 35.3728L120.547 39.0503Z" fill="white"/>
<path d="M127.631 33.7537H129.968C132.92 33.7537 135.113 35.2403 135.113 38.1294C135.113 40.9883 133.004 42.6074 130.035 42.6074H127.631V33.7537ZM129.938 41.1448C132.089 41.1448 133.456 40.3503 133.456 38.1294C133.456 36.0649 132.059 35.2163 129.992 35.2163H129.203V41.1448H129.938Z" fill="white"/>
<path d="M136.155 33.7537H137.89L140.197 40.9883L142.51 33.7537H144.245L141.227 42.6074H139.161L136.155 33.7537Z" fill="white"/>
<path d="M153.377 42.6074H151.726L150.973 40.5249H147.305L146.564 42.6074H144.913L148.19 33.7537H150.1L153.377 42.6074ZM147.829 39.0503H150.449L149.136 35.3728L147.829 39.0503Z" fill="white"/>
<path d="M156.467 35.2283V42.6074H154.913V33.7537H157.34L160.575 41.1328V33.7537H162.117V42.6074H159.702L156.467 35.2283Z" fill="white"/>
<path d="M165.701 38.1655C165.701 40.2601 167.075 41.2532 168.683 41.2532C169.557 41.2532 170.31 40.9944 170.942 40.5851L171.55 41.9815C170.797 42.4389 169.725 42.7338 168.611 42.7338C165.804 42.7338 164.021 40.7777 164.021 38.1595C164.021 35.5413 165.804 33.5852 168.611 33.5852C169.725 33.5852 170.797 33.8921 171.55 34.3496L170.942 35.7339C170.31 35.3427 169.557 35.0778 168.683 35.0778C167.075 35.0839 165.701 36.071 165.701 38.1655Z" fill="white"/>
<path d="M173.418 33.7537H179.074V35.2163H174.99V37.3229H178.695V38.8095H174.99V41.1448H179.098V42.6074H173.418V33.7537Z" fill="white"/>
<path d="M184.863 42.6074L182.809 35.0538V42.6074H181.237V33.7537H183.899L185.833 41.211L187.79 33.7537H190.435V42.6074H188.863V35.0538L186.821 42.6074H184.863Z" fill="white"/>
<path d="M192.953 33.7537H198.609V35.2163H194.525V37.3229H198.229V38.8095H194.525V41.1448H198.633V42.6074H192.953V33.7537Z" fill="white"/>
<path d="M202.32 35.2283V42.6074H200.766V33.7537H203.193L206.428 41.1328V33.7537H207.97V42.6074H205.554L202.32 35.2283Z" fill="white"/>
<path d="M212.56 35.2163H209.608V33.7537H217.09V35.2163H214.138V42.6074H212.554V35.2163H212.56Z" fill="white"/>
<path d="M229.836 42.6074H228.186L227.433 40.5249H223.764L223.023 42.6074H221.373L224.65 33.7537H226.559L229.836 42.6074ZM224.288 39.0503H226.909L225.595 35.3728L224.288 39.0503Z" fill="white"/>
<path d="M232.92 35.2283V42.6074H231.366V33.7537H233.794L237.029 41.1328V33.7537H238.571V42.6074H236.155L232.92 35.2283Z" fill="white"/>
<path d="M241.089 33.7537H243.426C246.377 33.7537 248.57 35.2403 248.57 38.1294C248.57 40.9883 246.462 42.6074 243.492 42.6074H241.089V33.7537ZM243.39 41.1448C245.54 41.1448 246.908 40.3503 246.908 38.1294C246.908 36.0649 245.51 35.2163 243.444 35.2163H242.655V41.1448H243.39Z" fill="white"/>
<path d="M256.72 41.2532C257.792 41.2532 258.612 40.9041 258.612 40.0855C258.612 39.3452 257.943 39.0924 256.931 38.8396L256.196 38.653C254.588 38.2618 253.762 37.3229 253.762 36.0108C253.762 34.5723 255.052 33.5852 256.973 33.5852C258.075 33.5852 259.322 33.9222 260.075 34.3797L259.455 35.764C258.81 35.3487 257.816 35.0778 256.967 35.0778C256.124 35.0778 255.395 35.4029 255.395 36.0409C255.395 36.6187 255.823 36.9377 256.804 37.1844L257.545 37.371C259.045 37.7442 260.274 38.5086 260.274 40.0916C260.274 41.7949 258.774 42.7338 256.768 42.7338C255.533 42.7338 254.256 42.4028 253.503 41.9454L254.124 40.561C254.744 40.9583 255.804 41.2532 256.72 41.2532Z" fill="white"/>
<path d="M264.376 35.2163H261.425V33.7537H268.906V35.2163H265.955V42.6074H264.37V35.2163H264.376Z" fill="white"/>
<path d="M270.442 39.1345V33.7537H272.015V38.7734C272.015 40.3985 272.593 41.2532 274.243 41.2532C275.882 41.2532 276.472 40.4045 276.472 38.7734V33.7537H278.044V39.1345C278.044 41.1509 277.008 42.7338 274.243 42.7338C271.484 42.7398 270.442 41.1569 270.442 39.1345Z" fill="white"/>
<path d="M280.454 33.7537H282.791C285.742 33.7537 287.935 35.2403 287.935 38.1294C287.935 40.9883 285.827 42.6074 282.857 42.6074H280.454V33.7537ZM282.761 41.1448C284.911 41.1448 286.279 40.3503 286.279 38.1294C286.279 36.0649 284.881 35.2163 282.815 35.2163H282.026V41.1448H282.761Z" fill="white"/>
<path d="M289.851 33.7537H295.507V35.2163H291.423V37.3229H295.128V38.8095H291.423V41.1448H295.531V42.6074H289.851V33.7537Z" fill="white"/>
<path d="M299.224 35.2283V42.6074H297.67V33.7537H300.097L303.332 41.1328V33.7537H304.874V42.6074H302.459L299.224 35.2283Z" fill="white"/>
<path d="M309.464 35.2163H306.512V33.7537H313.994V35.2163H311.042V42.6074H309.458V35.2163H309.464Z" fill="white"/>
<path d="M65.8818 50.2754H62.9302V48.8129H70.4117V50.2754H67.4661V57.6666H65.8818V50.2754Z" fill="white"/>
<path d="M75.1944 54.1696H73.6342V57.6606H72.062V48.8129H75.3811C77.6882 48.8129 78.6158 50.125 78.6158 51.4852C78.6158 52.5024 78.134 53.5136 76.8147 53.953L79.1279 57.6666H77.3569L75.1944 54.1696ZM73.6342 50.2754V52.8094H75.0317C76.1883 52.8094 76.9533 52.5446 76.9533 51.5213C76.9533 50.6366 76.3329 50.2754 75.0317 50.2754H73.6342Z" fill="white"/>
<path d="M88.4226 57.6666H86.7721L86.0191 55.5841H82.3507L81.6097 57.6666H79.9592L83.2361 48.8129H85.1457L88.4226 57.6666ZM82.8687 54.1034H85.489L84.1759 50.4259L82.8687 54.1034Z" fill="white"/>
<path d="M89.9526 57.6666V48.8129H91.5248V57.6666H89.9526Z" fill="white"/>
<path d="M95.603 50.2875V57.6666H94.0488V48.8129H96.4764L99.7111 56.192V48.8129H101.253V57.6666H98.8377L95.603 50.2875Z" fill="white"/>
<path d="M103.765 57.6666V48.8129H105.337V57.6666H103.765Z" fill="white"/>
<path d="M109.409 50.2875V57.6666H107.855V48.8129H110.283L113.518 56.192V48.8129H115.06V57.6666H112.644L109.409 50.2875Z" fill="white"/>
<path d="M116.975 53.2187C116.975 50.6005 118.758 48.6443 121.565 48.6443C122.836 48.6443 124.047 48.9513 124.8 49.4087L124.198 50.7931C123.565 50.4019 122.655 50.137 121.631 50.137C120.023 50.137 118.65 51.1181 118.65 53.2127C118.65 55.3072 120.023 56.3003 121.631 56.3003C122.252 56.3003 122.908 56.1559 123.445 55.9211V54.3261H121.469V52.8395H125.023V56.9744C124.18 57.486 122.71 57.781 121.571 57.781C118.758 57.793 116.975 55.8429 116.975 53.2187Z" fill="white"/>
<path d="M135.143 57.793C132.444 57.793 130.541 55.8068 130.541 53.2187C130.541 50.6426 132.438 48.6443 135.143 48.6443C137.842 48.6443 139.739 50.6426 139.739 53.2187C139.745 55.8068 137.842 57.793 135.143 57.793ZM135.143 50.143C133.468 50.143 132.215 51.3649 132.215 53.2187C132.215 55.0725 133.474 56.2943 135.143 56.2943C136.824 56.2943 138.082 55.0725 138.082 53.2187C138.082 51.3649 136.83 50.143 135.143 50.143Z" fill="white"/>
<path d="M141.661 57.6666V48.8129H147.311V50.2754H143.233V52.382H146.913V53.8687H143.233V57.6666H141.661Z" fill="white"/>
<path d="M149.064 57.6666V48.8129H154.714V50.2754H150.636V52.382H154.316V53.8687H150.636V57.6666H149.064Z" fill="white"/>
<path d="M156.467 57.6666V48.8129H158.039V57.6666H156.467Z" fill="white"/>
<path d="M161.629 53.2187C161.629 55.3132 163.003 56.3063 164.611 56.3063C165.485 56.3063 166.238 56.0475 166.87 55.6382L167.478 57.0346C166.725 57.492 165.653 57.787 164.539 57.787C161.732 57.787 159.949 55.8308 159.949 53.2126C159.949 50.5944 161.732 48.6383 164.539 48.6383C165.653 48.6383 166.725 48.9453 167.478 49.4027L166.87 50.787C166.238 50.3958 165.485 50.131 164.611 50.131C163.003 50.143 161.629 51.1241 161.629 53.2187Z" fill="white"/>
<path d="M169.346 48.8129H175.002V50.2754H170.918V52.382H174.623V53.8687H170.918V56.204H175.026V57.6666H169.346V48.8129Z" fill="white"/>
<path d="M181.815 48.8129H183.321C182.435 50.2634 181.706 52.2918 181.706 54.4224C181.706 56.529 182.441 58.6116 183.321 60.0681H181.815C181.05 58.9306 180.176 56.7036 180.176 54.4224C180.176 52.1293 181.05 49.9564 181.815 48.8129Z" fill="white"/>
<path d="M185.748 53.2187C185.748 55.3132 187.122 56.3063 188.73 56.3063C189.603 56.3063 190.356 56.0475 190.989 55.6382L191.597 57.0346C190.844 57.492 189.772 57.787 188.658 57.787C185.851 57.787 184.068 55.8308 184.068 53.2126C184.068 50.5944 185.851 48.6383 188.658 48.6383C189.772 48.6383 190.844 48.9453 191.597 49.4027L190.989 50.787C190.356 50.3958 189.603 50.131 188.73 50.131C187.122 50.143 185.748 51.1241 185.748 53.2187Z" fill="white"/>
<path d="M200.946 57.6666H199.296L198.543 55.5841H194.874L194.133 57.6666H192.483L195.76 48.8129H197.669L200.946 57.6666ZM195.398 54.1034H198.019L196.706 50.4259L195.398 54.1034Z" fill="white"/>
<path d="M205.103 56.3124C206.175 56.3124 206.994 55.9633 206.994 55.1447C206.994 54.4044 206.325 54.1516 205.314 53.8988L204.579 53.7122C202.97 53.321 202.145 52.3821 202.145 51.0699C202.145 49.6314 203.434 48.6443 205.356 48.6443C206.458 48.6443 207.705 48.9814 208.458 49.4388L207.837 50.8232C207.193 50.4079 206.199 50.137 205.35 50.137C204.506 50.137 203.777 50.462 203.777 51.1C203.777 51.6778 204.205 51.9968 205.187 52.2436L205.928 52.4302C207.428 52.8034 208.657 53.5678 208.657 55.1507C208.657 56.8541 207.157 57.793 205.151 57.793C203.916 57.793 202.639 57.462 201.886 57.0045L202.506 55.6202C203.127 56.0174 204.187 56.3124 205.103 56.3124Z" fill="white"/>
<path d="M212.759 50.2754H209.807V48.8129H217.289V50.2754H214.337V57.6666H212.753V50.2754H212.759Z" fill="white"/>
<path d="M222.933 57.793C220.234 57.793 218.331 55.8068 218.331 53.2187C218.331 50.6426 220.228 48.6443 222.933 48.6443C225.632 48.6443 227.529 50.6426 227.529 53.2187C227.529 55.8068 225.632 57.793 222.933 57.793ZM222.933 50.143C221.258 50.143 220.005 51.3649 220.005 53.2187C220.005 55.0725 221.264 56.2943 222.933 56.2943C224.614 56.2943 225.873 55.0725 225.873 53.2187C225.873 51.3649 224.614 50.143 222.933 50.143Z" fill="white"/>
<path d="M229.794 60.0681H228.276C229.161 58.6176 229.902 56.529 229.902 54.4224C229.902 52.3038 229.161 50.2634 228.276 48.8129H229.794C230.547 49.9564 231.408 52.1293 231.408 54.4224C231.414 56.7036 230.553 58.9306 229.794 60.0681Z" fill="white"/>
</g>
<defs>
<clipPath id="clip0_336_3145">
<rect width="314" height="76" fill="white"/>
</clipPath>
</defs>
</svg>
