<svg width="30" height="33" viewBox="0 0 30 33" fill="none" xmlns="http://www.w3.org/2000/svg">
<path d="M20.3059 7.39362C20.3059 8.92371 19.6981 10.3911 18.6161 11.4731C17.5342 12.555 16.0668 13.1628 14.5367 13.1628C13.0066 13.1628 11.5392 12.555 10.4572 11.4731C9.37527 10.3911 8.76744 8.92371 8.76744 7.39362C8.76744 5.86352 9.37527 4.3961 10.4572 3.31416C11.5392 2.23222 13.0066 1.62439 14.5367 1.62439C16.0668 1.62439 17.5342 2.23222 18.6161 3.31416C19.6981 4.3961 20.3059 5.86352 20.3059 7.39362ZM2.99976 29.1136C3.04919 26.0864 4.28643 23.2 6.44464 21.0767C8.60285 18.9535 11.5091 17.7636 14.5367 17.7636C17.5642 17.7636 20.4705 18.9535 22.6287 21.0767C24.7869 23.2 26.0241 26.0864 26.0736 29.1136C22.4542 30.7732 18.5184 31.6298 14.5367 31.6244C10.4197 31.6244 6.51206 30.7259 2.99976 29.1136Z" stroke="white" stroke-width="1.5" stroke-linecap="round" stroke-linejoin="round"/>
</svg>
