<svg width="32" height="33" viewBox="0 0 32 33" fill="none" xmlns="http://www.w3.org/2000/svg">
<path d="M29.7501 20.2078V27.2912C29.7501 29.1145 28.4384 30.6845 26.6301 30.9245C23.1518 31.3862 19.6034 31.6245 16.0001 31.6245C12.3968 31.6245 8.84842 31.3862 5.37009 30.9245C3.56176 30.6845 2.25009 29.1145 2.25009 27.2912V20.2078M29.7501 20.2078C30.1458 19.8639 30.4625 19.4384 30.6783 18.9606C30.894 18.4827 31.0038 17.9638 31.0001 17.4395V11.1345C31.0001 9.33285 29.7201 7.77618 27.9384 7.50951C26.0506 7.22688 24.1533 7.01174 22.2501 6.86451M29.7501 20.2078C29.4268 20.4828 29.0501 20.6995 28.6284 20.8412C24.5555 22.1926 20.2914 22.8792 16.0001 22.8745C11.5868 22.8745 7.34176 22.1595 3.37176 20.8412C2.96052 20.7044 2.57964 20.4893 2.25009 20.2078M2.25009 20.2078C1.85433 19.8639 1.53769 19.4384 1.32192 18.9606C1.10615 18.4827 0.996363 17.9638 1.00009 17.4395V11.1345C1.00009 9.33285 2.28009 7.77618 4.06176 7.50951C5.94959 7.22687 7.84691 7.01174 9.75009 6.86451M22.2501 6.86451V5.37451C22.2501 4.37995 21.855 3.42612 21.1517 2.72286C20.4485 2.0196 19.4947 1.62451 18.5001 1.62451H13.5001C12.5055 1.62451 11.5517 2.0196 10.8484 2.72286C10.1452 3.42612 9.75009 4.37995 9.75009 5.37451V6.86451M22.2501 6.86451C18.0896 6.54297 13.9106 6.54297 9.75009 6.86451M16.0001 17.8745H16.0134V17.8878H16.0001V17.8745Z" stroke="white" stroke-width="1.5" stroke-linecap="round" stroke-linejoin="round"/>
</svg>
