<svg width="140" height="100" viewBox="0 0 140 100" fill="none" xmlns="http://www.w3.org/2000/svg">
<g clip-path="url(#clip0_336_2999)">
<path d="M69.9969 58.3018C52.4072 58.3018 35.3424 60.5613 19.0862 64.7978C20.9508 65.8674 22.9843 66.6727 25.1385 67.1714C39.3129 62.8147 54.3804 60.4651 69.9909 60.4651C85.6075 60.4651 100.669 62.8147 114.843 67.1714C116.997 66.6727 119.031 65.8614 120.896 64.7978C104.651 60.5613 87.5927 58.3018 69.9969 58.3018Z" fill="white"/>
<path d="M5.59371 96.2923C5.59371 97.7706 5.0808 98.4616 3.66879 98.4616C2.26885 98.4616 1.75595 97.7706 1.75595 96.2923V91.7253H0.168945V96.6949C0.168945 98.7441 1.20683 100 3.66879 100C6.13679 100 7.17468 98.7441 7.17468 96.6949V91.7253H5.59371V96.2923Z" fill="white"/>
<path d="M14.4157 97.4821L10.8797 91.7253H9.07544V99.8678H10.6504V94.1169L14.1864 99.8678H16.0027V91.7253H14.4157V97.4821Z" fill="white"/>
<path d="M19.5207 91.7253H17.9397V99.8678H19.5207V91.7253Z" fill="white"/>
<path d="M24.3542 98.3414L22.3388 91.7253H20.6311L23.2017 99.8678H25.4887L28.0834 91.7253H26.3757L24.3542 98.3414Z" fill="white"/>
<path d="M30.672 96.4365H33.8702V94.9702H30.672V93.1915H34.2141V91.7253H29.0911V99.8678H34.2322V98.3955H30.672V96.4365Z" fill="white"/>
<path d="M41.8714 94.147C41.8714 92.4163 40.6826 91.7253 38.9568 91.7253H35.7285V99.8678H37.3095V96.6769H38.456L40.3628 99.8678H42.1067L40.0732 96.5327C41.28 96.2021 41.8714 95.2887 41.8714 94.147ZM39.0594 95.2887H37.3155V93.1915H39.0594C40.3326 93.1915 40.2783 94.0689 40.2783 94.2071C40.2783 94.9222 39.8258 95.2887 39.0594 95.2887Z" fill="white"/>
<path d="M46.8316 95.1024C45.4739 94.7479 44.9489 94.5676 44.9489 93.8465C44.9489 93.1795 45.661 93.0052 46.3308 93.0052C47.1273 93.0052 47.9359 93.2276 48.5272 93.6182L49.1307 92.3021C48.4367 91.8514 47.3747 91.587 46.3187 91.587C44.4662 91.587 43.368 92.5004 43.3559 93.8585C43.3438 95.2707 44.1705 95.9317 45.492 96.2983C46.8014 96.6769 47.6885 96.8632 47.6885 97.6143C47.6885 98.2092 47.1213 98.5878 46.0472 98.5878C45.1601 98.5878 44.3033 98.3474 43.6999 97.9328L43.0964 99.2488C43.8205 99.7296 44.9429 100 46.1075 100C48.485 100 49.2936 98.7741 49.2936 97.5722C49.2936 96.3223 48.5876 95.5832 46.8316 95.1024Z" fill="white"/>
<path d="M52.371 91.7253H50.79V99.8678H52.371V91.7253Z" fill="white"/>
<path d="M53.5718 93.2035H56.1605V99.8678H57.7475V93.2035H60.3482V91.7253H53.5718V93.2035Z" fill="white"/>
<path d="M66.9195 91.7253L64.88 95.3308L62.8464 91.7253H61.0603L64.0834 96.8091V99.8678H65.6765V96.8091L68.6996 91.7253H66.9195Z" fill="white"/>
<path d="M75.9648 91.587C73.4123 91.587 71.7952 93.4559 71.7952 95.7755C71.8072 98.083 73.4244 100 75.9648 100C78.4932 100 80.1103 98.083 80.1224 95.7755C80.1224 93.4559 78.5052 91.587 75.9648 91.587ZM75.9648 98.4616C74.4442 98.4616 73.4003 97.2778 73.3882 95.7755C73.3882 94.2491 74.4201 93.1254 75.9648 93.1254C77.4854 93.1254 78.5294 94.2491 78.5294 95.7755C78.5173 97.2838 77.4794 98.4616 75.9648 98.4616Z" fill="white"/>
<path d="M86.4825 93.2035V91.7253H81.2388V99.8678H82.8197V96.4425H86.1265V94.9702H82.8197V93.2035H86.4825Z" fill="white"/>
<path d="M93.1624 95.1024C91.8047 94.7479 91.2798 94.5676 91.2798 93.8465C91.2798 93.1795 91.9918 93.0052 92.6616 93.0052C93.4581 93.0052 94.2667 93.2276 94.858 93.6182L95.4615 92.3021C94.7675 91.8514 93.7055 91.587 92.6495 91.587C90.797 91.587 89.6988 92.5004 89.6867 93.8585C89.6747 95.2707 90.5013 95.9317 91.8228 96.2983C93.1323 96.6769 94.0193 96.8632 94.0193 97.6143C94.0193 98.2092 93.4521 98.5878 92.378 98.5878C91.4909 98.5878 90.6341 98.3474 90.0307 97.9328L89.4272 99.2488C90.1514 99.7296 91.2737 100 92.4383 100C94.8158 100 95.6244 98.7741 95.6244 97.5722C95.6244 96.3223 94.9184 95.5832 93.1624 95.1024Z" fill="white"/>
<path d="M101.828 94.9702H98.2794V91.7253H96.6985V99.8678H98.2794V96.4545H101.828V99.8678H103.415V91.7253H101.828V94.9702Z" fill="white"/>
<path d="M107.192 91.7253L104.211 99.8678H105.852L106.546 97.8787H109.774L110.48 99.8678H112.116L109.111 91.7253H107.192ZM107.017 96.4666L108.115 93.3718L108.145 93.2696L108.175 93.3718L109.286 96.4666H107.017Z" fill="white"/>
<path d="M122.531 97.2297C122.531 98.1251 122.127 98.4556 121.493 98.4556C121.071 98.4556 120.678 98.3475 120.304 98.1672L119.731 99.5253C120.171 99.7777 120.938 100.006 121.849 100.006C123.327 100.006 124.118 99.1407 124.118 97.416V91.7373H122.537V97.2297H122.531Z" fill="white"/>
<path d="M127.57 91.7253L124.589 99.8678H126.23L126.924 97.8787H130.152L130.858 99.8678H132.493L129.488 91.7253H127.57ZM127.401 96.4666L128.529 93.2756L129.669 96.4666H127.401Z" fill="white"/>
<path d="M138.419 91.7253V94.9702H134.871V91.7253H133.284V99.8678H134.871V96.4545H138.419V99.8678H140V91.7253H138.419Z" fill="white"/>
<path d="M119.043 94.147C119.043 92.4163 117.854 91.7253 116.129 91.7253H112.9V99.8678H114.481V96.6769H115.628L117.535 99.8678H119.279L117.245 96.5327C118.452 96.2021 119.043 95.2887 119.043 94.147ZM116.231 95.2887H114.487V93.1915H116.231C117.504 93.1915 117.45 94.0689 117.45 94.2071C117.45 94.9222 116.998 95.2887 116.231 95.2887Z" fill="white"/>
<path d="M110.149 79.4303C108.236 79.4303 106.679 80.9747 106.679 82.8856C106.679 83.5166 106.866 84.0995 107.18 84.5923H100.319L101.852 81.1249C101.309 80.6142 100.192 79.4363 97.9476 79.4363C95.8356 79.4363 94.7193 80.488 94.0435 81.1249L95.5761 84.5923H81.2328V79.4363H77.389C75.5486 79.4363 74.0581 80.9206 74.0581 82.7535C74.0581 84.5863 75.5486 86.0706 77.389 86.0706H113.606V82.8917C113.612 80.9747 112.062 79.4303 110.149 79.4303ZM77.4976 84.5863C76.4778 84.5863 75.6511 83.763 75.6511 82.7474C75.6511 81.7319 76.4778 80.9086 77.4976 80.9086H79.6579V84.5923H77.4976V84.5863ZM95.9382 81.4795C96.5054 81.1129 97.2114 80.9086 97.9536 80.9086C98.6958 80.9086 99.4018 81.1129 99.9691 81.4795L98.5933 84.5923H97.308L95.9382 81.4795ZM112.031 84.5863H110.076C109.075 84.5863 108.26 83.775 108.26 82.7775C108.26 81.7439 109.105 80.9026 110.143 80.9026C111.181 80.9026 112.025 81.7439 112.025 82.7775V84.5863H112.031Z" fill="white"/>
<path d="M134.08 87.2063C133.561 87.2063 133.145 87.6209 133.145 88.1377C133.145 88.6545 133.561 89.0692 134.08 89.0692C134.599 89.0692 135.016 88.6545 135.016 88.1377C135.016 87.6269 134.593 87.2063 134.08 87.2063Z" fill="white"/>
<path d="M6.38428 78.2465C6.90083 78.2465 7.31958 77.8295 7.31958 77.3151C7.31958 76.8007 6.90083 76.3836 6.38428 76.3836C5.86772 76.3836 5.44897 76.8007 5.44897 77.3151C5.44897 77.8295 5.86772 78.2465 6.38428 78.2465Z" fill="white"/>
<path d="M3.94629 78.2465C4.46523 78.2465 4.8816 77.8319 4.8816 77.3151C4.8816 76.7983 4.46523 76.3836 3.94629 76.3836C3.42735 76.3836 3.01099 76.7983 3.01099 77.3151C3.01099 77.8319 3.42735 78.2465 3.94629 78.2465Z" fill="white"/>
<path d="M80.4482 78.2465C80.9648 78.2465 81.3835 77.8295 81.3835 77.3151C81.3835 76.8007 80.9648 76.3836 80.4482 76.3836C79.9317 76.3836 79.5129 76.8007 79.5129 77.3151C79.5129 77.8295 79.9317 78.2465 80.4482 78.2465Z" fill="white"/>
<path d="M78.0105 78.2465C78.5294 78.2465 78.9458 77.8319 78.9458 77.3151C78.9458 76.7983 78.5294 76.3836 78.0105 76.3836C77.4916 76.3836 77.0752 76.7983 77.0752 77.3151C77.0752 77.8319 77.4916 78.2465 78.0105 78.2465Z" fill="white"/>
<path d="M22.2 78.2465C22.7165 78.2465 23.1353 77.8295 23.1353 77.3151C23.1353 76.8007 22.7165 76.3836 22.2 76.3836C21.6834 76.3836 21.2646 76.8007 21.2646 77.3151C21.2646 77.8295 21.6834 78.2465 22.2 78.2465Z" fill="white"/>
<path d="M19.762 78.2465C20.2809 78.2465 20.6973 77.8319 20.6973 77.3151C20.6973 76.7983 20.2809 76.3836 19.762 76.3836C19.243 76.3836 18.8267 76.7983 18.8267 77.3151C18.8267 77.8319 19.243 78.2465 19.762 78.2465Z" fill="white"/>
<path d="M64.3249 84.5862H58.6346C58.0252 84.5862 57.5304 84.0935 57.5304 83.4866V79.4303H55.9494V83.0178C55.9494 84.0034 55.1468 84.8026 54.1572 84.8026C53.1676 84.8026 52.3651 84.0034 52.3651 83.0178V80.1094H50.7841V83.2462C50.7841 84.0214 50.1565 84.8447 49.1488 84.7966C48.3282 84.7605 47.6644 84.0334 47.6644 83.1801V80.1094H46.0834V83.4926C46.0834 84.0995 45.5886 84.5923 44.9792 84.5923H30.672V76.618H29.0911V86.0645H44.9792C45.7335 86.0645 46.4153 85.752 46.9041 85.2473C47.4773 85.8722 48.304 86.2688 49.2273 86.2688C50.1988 86.2688 51.0677 85.8302 51.641 85.1391C52.2564 85.8302 53.1555 86.2688 54.1572 86.2688C55.1408 86.2688 56.0278 85.8482 56.6433 85.1752C57.1381 85.716 57.8441 86.0585 58.6346 86.0585H65.9059V76.618H64.3249V84.5862Z" fill="white"/>
<path d="M69.5143 76.618H67.9333V86.0645H69.5143V76.618Z" fill="white"/>
<path d="M51.5806 77.0266C52.0971 77.0266 52.5159 76.6096 52.5159 76.0952C52.5159 75.5808 52.0971 75.1638 51.5806 75.1638C51.064 75.1638 50.6453 75.5808 50.6453 76.0952C50.6453 76.6096 51.064 77.0266 51.5806 77.0266Z" fill="white"/>
<path d="M52.8416 79.0157C53.3581 79.0157 53.7769 78.5987 53.7769 78.0843C53.7769 77.5699 53.3581 77.1528 52.8416 77.1528C52.325 77.1528 51.9062 77.5699 51.9062 78.0843C51.9062 78.5987 52.325 79.0157 52.8416 79.0157Z" fill="white"/>
<path d="M50.3193 79.0157C50.8359 79.0157 51.2546 78.5987 51.2546 78.0843C51.2546 77.5699 50.8359 77.1528 50.3193 77.1528C49.8028 77.1528 49.384 77.5699 49.384 78.0843C49.384 78.5987 49.8028 79.0157 50.3193 79.0157Z" fill="white"/>
<path d="M16.8234 84.0635L16.9622 84.5863H7.17469V79.4303H3.33089C1.49045 79.4303 0 80.9146 0 82.7474C0 84.5803 1.49045 86.0645 3.33089 86.0645H22.9904V79.4303H20.4017C17.9699 79.4303 16.2019 81.7259 16.8234 84.0635ZM3.43347 84.5863C2.41369 84.5863 1.587 83.763 1.587 82.7474C1.587 81.7319 2.41369 80.9086 3.43347 80.9086H5.59372V84.5923H3.43347V84.5863ZM21.4094 84.5863H18.6035L18.3259 83.5527C17.9699 82.2126 18.9837 80.9026 20.3715 80.9026H21.4034V84.5863H21.4094Z" fill="white"/>
<path d="M138.431 83.0599C136.929 80.9567 134.666 77.8799 129.929 80.3437L130.611 81.6477C133.99 79.887 135.48 81.4795 137.218 83.9132C137.399 84.1656 137.568 84.3879 137.731 84.5862H117.215V76.618H115.634V86.0645H139.994V84.5862C139.614 84.5923 138.956 83.799 138.431 83.0599Z" fill="white"/>
<path d="M25.4826 79.4303V85.3615C25.4826 85.5237 25.4524 86.8758 23.3464 86.6054V88.0837C26.6834 88.4562 27.0635 85.8843 27.0635 85.2653V79.4363H25.4826V79.4303Z" fill="white"/>
<path d="M101.815 42.0347C101.815 41.6922 101.538 41.4158 101.194 41.4158H38.8061C38.4621 41.4158 38.1846 41.6922 38.1846 42.0347V42.8099H101.821V42.0347H101.815Z" fill="white"/>
<path d="M65.7307 15.8103C62.3877 20.3894 59.2439 29.2651 56.438 32.6723C57.1742 34.0664 58.2483 35.9714 59.8111 38.0265C62.0076 35.725 62.1826 35.5327 65.0066 32.6723C63.0032 26.0261 63.3049 20.2452 65.7729 15.8103C65.7609 15.8103 65.7428 15.7983 65.7307 15.8103Z" fill="white"/>
<path d="M50.9531 38.0266C52.8297 35.8392 54.3564 34.2888 56.2813 32.6723C55.6115 25.293 56.9994 19.4219 62.1466 15.3897C62.1345 15.3897 62.1224 15.3897 62.1104 15.3897C59.0027 17.5651 56.0339 20.9122 48.6963 32.6723C49.1489 34.1326 49.9937 36.1817 50.9531 38.0266Z" fill="white"/>
<path d="M43.2473 32.6723C43.2473 34.3489 43.537 36.5543 43.9835 38.0266C45.9808 35.5087 46.7351 34.6674 48.5454 32.6723C49.4022 21.9939 58.351 15.7322 59.2802 15.2214C59.2742 15.2214 59.2621 15.2214 59.2561 15.2214C55.008 17.4389 49.885 21.9458 43.2473 32.6723Z" fill="white"/>
<path d="M74.8305 32.6723C72.1573 27.4743 70.3772 22.733 70.0333 15.8103H69.9669C69.6229 22.733 67.8428 27.4743 65.1697 32.6723C66.9136 34.6854 67.3239 35.1601 70.0031 38.0265C72.6763 35.1601 73.0866 34.6854 74.8305 32.6723Z" fill="white"/>
<path d="M80.1828 38.0265C81.7456 35.9774 82.8197 34.0725 83.5559 32.6723C80.75 29.2651 77.6122 20.3894 74.2632 15.8103C74.2511 15.7983 74.233 15.8103 74.2209 15.8103C76.6889 20.2452 76.9846 26.0261 74.9873 32.6723C77.8113 35.5327 77.9923 35.719 80.1828 38.0265Z" fill="white"/>
<path d="M83.7187 32.6723C85.6436 34.2828 87.1703 35.8392 89.0469 38.0266C90.0064 36.1817 90.8572 34.1386 91.2977 32.6723C83.9661 20.9122 80.9913 17.5651 77.8836 15.3897C77.8716 15.3897 77.8595 15.3897 77.8474 15.3897C83.0006 19.4219 84.3885 25.293 83.7187 32.6723Z" fill="white"/>
<path d="M91.4546 32.6723C93.2588 34.6614 94.0191 35.5087 96.0165 38.0266C96.469 36.5543 96.7527 34.3549 96.7527 32.6723C90.115 21.9518 84.9859 17.4389 80.7439 15.2214C80.7378 15.2214 80.7258 15.2214 80.7197 15.2214C81.649 15.7322 90.5917 21.9939 91.4546 32.6723Z" fill="white"/>
<path d="M96.9097 32.6723C97.7666 33.8501 99.4561 36.1637 100.542 38.0266C100.542 27.1378 90.3626 18.3763 82.5301 15.2154C82.5241 15.2154 82.5181 15.2154 82.5181 15.2154C94.1822 20.4074 96.8493 30.9717 96.9097 32.6723Z" fill="white"/>
<path d="M57.482 15.2094C57.476 15.2094 57.4699 15.2094 57.4699 15.2094C49.6375 18.3703 39.4578 27.1378 39.4578 38.0205C40.55 36.1577 42.2395 33.8441 43.0904 32.6663C43.1507 30.9717 45.8178 20.4074 57.482 15.2094Z" fill="white"/>
<path d="M66.9798 54.9126V53.873C66.9798 47.8817 68.3134 46.2833 68.3134 46.2833H58.7371C58.7371 46.2833 60.0706 47.8817 60.0706 53.873V54.9126H66.9798Z" fill="white"/>
<path d="M79.9293 54.9126V53.873C79.9293 47.8817 81.2628 46.2833 81.2628 46.2833H71.6865C71.6865 46.2833 73.0201 47.8817 73.0201 53.873V54.9126H79.9293Z" fill="white"/>
<path d="M99.2146 54.9126V53.873C99.2146 47.8817 99.9086 46.2833 99.9086 46.2833H94.9243C94.9243 46.2833 95.6183 47.8817 95.6183 53.873V54.9126H99.2146Z" fill="white"/>
<path d="M44.3816 54.9126V53.873C44.3816 47.8817 45.0756 46.2833 45.0756 46.2833H40.0913C40.0913 46.2833 40.7852 47.8817 40.7852 53.873V54.9126H44.3816Z" fill="white"/>
<path d="M90.5857 54.9126V53.873C90.5857 47.8817 91.5452 46.2833 91.5452 46.2833H84.636C84.636 46.2833 85.5954 47.8817 85.5954 53.873V54.9126H90.5857Z" fill="white"/>
<path d="M54.3985 54.9126V53.873C54.3985 47.8817 55.358 46.2833 55.358 46.2833H48.4548C48.4548 46.2833 49.4143 47.8817 49.4143 53.873V54.9126H54.3985Z" fill="white"/>
<path d="M69.9971 10.7325C71.6384 10.7325 73.0021 11.015 74.3357 11.4596C74.3478 11.4657 74.3538 11.4596 74.3598 11.4476C74.3659 11.4416 74.3598 11.4296 74.3538 11.4236L70.3953 8.44901V8.43699C70.685 8.29277 70.8901 7.99231 70.8901 7.64978C70.8901 7.30124 70.691 7.00679 70.3953 6.86257V6.27967L70.8901 5.9131L70.0091 0.00600655C70.0091 -2.70857e-06 70.0031 -0.00601196 69.9971 -0.00601196C69.991 -0.00601196 69.985 -2.70857e-06 69.985 0.00600655L69.104 5.9131L69.5988 6.27967V6.86257C69.3092 7.00679 69.104 7.30725 69.104 7.64978C69.104 7.99831 69.3031 8.29277 69.5988 8.43699V8.44901L65.6404 11.4236C65.6343 11.4296 65.6283 11.4416 65.6343 11.4476C65.6404 11.4536 65.6464 11.4596 65.6585 11.4596C66.986 11.021 68.3558 10.7325 69.9971 10.7325Z" fill="white"/>
</g>
<defs>
<clipPath id="clip0_336_2999">
<rect width="140" height="100" fill="white"/>
</clipPath>
</defs>
</svg>
