<svg width="100" height="72" viewBox="0 0 100 72" fill="none" xmlns="http://www.w3.org/2000/svg">
<g clip-path="url(#clip0_26_1704)">
<mask id="mask0_26_1704" style="mask-type:luminance" maskUnits="userSpaceOnUse" x="0" y="0" width="100" height="72">
<path d="M100 0.285736H0V71.7143H100V0.285736Z" fill="white"/>
</mask>
<g mask="url(#mask0_26_1704)">
<path d="M72.7236 30.311C72.7236 30.0651 72.525 29.8672 72.2786 29.8672H27.7168C27.47 29.8672 27.2712 30.0651 27.2712 30.311V30.8626H72.7236V30.311Z" fill="white"/>
</g>
<mask id="mask1_26_1704" style="mask-type:luminance" maskUnits="userSpaceOnUse" x="0" y="0" width="100" height="72">
<path d="M100 0.285736H0V71.7143H100V0.285736Z" fill="white"/>
</mask>
<g mask="url(#mask1_26_1704)">
<path d="M46.9491 11.5802C44.5588 14.8541 42.3159 21.192 40.314 23.6234C40.8408 24.6187 41.6085 25.9798 42.7253 27.4459C44.2908 25.8 44.4203 25.665 46.4373 23.6234C45.0073 18.8775 45.221 14.7492 46.9822 11.5802C46.9702 11.5802 46.9581 11.5712 46.9491 11.5802Z" fill="white"/>
</g>
<mask id="mask2_26_1704" style="mask-type:luminance" maskUnits="userSpaceOnUse" x="0" y="0" width="100" height="72">
<path d="M100 0.285736H0V71.7143H100V0.285736Z" fill="white"/>
</mask>
<g mask="url(#mask2_26_1704)">
<path d="M36.3972 27.4445C37.7369 25.8825 38.8297 24.7732 40.2025 23.622C39.7208 18.3484 40.7143 14.1572 44.3931 11.279H44.3661C42.1473 12.835 40.0249 15.2244 34.7866 23.622C35.1027 24.6683 35.7108 26.1284 36.3972 27.4445Z" fill="white"/>
</g>
<mask id="mask3_26_1704" style="mask-type:luminance" maskUnits="userSpaceOnUse" x="0" y="0" width="100" height="72">
<path d="M100 0.285736H0V71.7143H100V0.285736Z" fill="white"/>
</mask>
<g mask="url(#mask3_26_1704)">
<path d="M30.8914 23.6234C30.8914 24.8226 31.0961 26.3935 31.4182 27.4459C32.8452 25.647 33.3841 25.0444 34.6756 23.6234C35.2897 15.9963 41.6811 11.5232 42.3464 11.1604H42.3283C39.2937 12.7434 35.6299 15.9633 30.8914 23.6234Z" fill="white"/>
</g>
<mask id="mask4_26_1704" style="mask-type:luminance" maskUnits="userSpaceOnUse" x="0" y="0" width="100" height="72">
<path d="M100 0.285736H0V71.7143H100V0.285736Z" fill="white"/>
</mask>
<g mask="url(#mask4_26_1704)">
<path d="M53.4517 23.6222C51.54 19.9106 50.2696 16.5227 50.0257 11.5789H49.9745C49.7307 16.5227 48.4602 19.9106 46.5486 23.6222C47.7919 25.0582 48.0899 25.4 49.9986 27.4447C51.9103 25.4 52.2053 25.0582 53.4517 23.6222Z" fill="white"/>
</g>
<mask id="mask5_26_1704" style="mask-type:luminance" maskUnits="userSpaceOnUse" x="0" y="0" width="100" height="72">
<path d="M100 0.285736H0V71.7143H100V0.285736Z" fill="white"/>
</mask>
<g mask="url(#mask5_26_1704)">
<path d="M57.2741 27.4445C58.391 25.9785 59.1587 24.6174 59.6855 23.622C57.6805 21.1876 55.4377 14.8497 53.0504 11.5789C53.0443 11.5729 53.0293 11.5789 53.0203 11.5789C54.7844 14.7478 54.9952 18.8761 53.5652 23.622C55.5792 25.6637 55.7056 25.7986 57.2741 27.4445Z" fill="white"/>
</g>
<mask id="mask6_26_1704" style="mask-type:luminance" maskUnits="userSpaceOnUse" x="0" y="0" width="100" height="72">
<path d="M100 0.285736H0V71.7143H100V0.285736Z" fill="white"/>
</mask>
<g mask="url(#mask6_26_1704)">
<path d="M59.7987 23.6234C61.1714 24.7747 62.2643 25.8839 63.6039 27.4459C64.2904 26.1298 64.8954 24.6697 65.2146 23.6234C59.9763 15.2259 57.8539 12.8335 55.6352 11.2805H55.6111C59.2869 14.1586 60.2774 18.3498 59.7987 23.6234Z" fill="white"/>
</g>
<mask id="mask7_26_1704" style="mask-type:luminance" maskUnits="userSpaceOnUse" x="0" y="0" width="100" height="72">
<path d="M100 0.285736H0V71.7143H100V0.285736Z" fill="white"/>
</mask>
<g mask="url(#mask7_26_1704)">
<path d="M65.324 23.6234C66.6155 25.0444 67.1544 25.647 68.5813 27.4459C68.9035 26.3935 69.1082 24.8226 69.1082 23.6234C64.3696 15.9633 60.7058 12.7434 57.6742 11.1604H57.6562C58.3185 11.5232 64.7098 15.9963 65.324 23.6234Z" fill="white"/>
</g>
<mask id="mask8_26_1704" style="mask-type:luminance" maskUnits="userSpaceOnUse" x="0" y="0" width="100" height="72">
<path d="M100 0.285736H0V71.7143H100V0.285736Z" fill="white"/>
</mask>
<g mask="url(#mask8_26_1704)">
<path d="M69.2205 23.6226C69.8316 24.462 71.0388 26.1139 71.8158 27.4451C71.8158 19.6682 64.5452 13.4082 58.9517 11.1507C58.9487 11.1507 58.9456 11.1507 58.9426 11.1507C67.2727 14.8623 69.1753 22.4084 69.2205 23.6226Z" fill="white"/>
</g>
<mask id="mask9_26_1704" style="mask-type:luminance" maskUnits="userSpaceOnUse" x="0" y="0" width="100" height="72">
<path d="M100 0.285736H0V71.7143H100V0.285736Z" fill="white"/>
</mask>
<g mask="url(#mask9_26_1704)">
<path d="M41.058 11.1507C41.055 11.1507 41.052 11.1507 41.0489 11.1507C35.4554 13.4082 28.1851 19.6712 28.1851 27.4451C28.9618 26.1139 30.169 24.462 30.7801 23.6226C30.8253 22.4084 32.7279 14.8623 41.058 11.1507Z" fill="white"/>
</g>
<mask id="mask10_26_1704" style="mask-type:luminance" maskUnits="userSpaceOnUse" x="0" y="0" width="100" height="72">
<path d="M100 0.285736H0V71.7143H100V0.285736Z" fill="white"/>
</mask>
<g mask="url(#mask10_26_1704)">
<path d="M47.8432 39.5092V38.7657C47.8432 34.4875 48.7944 33.3452 48.7944 33.3452H41.9546C41.9546 33.3452 42.9059 34.4875 42.9059 38.7657V39.5092H47.8432Z" fill="white"/>
</g>
<mask id="mask11_26_1704" style="mask-type:luminance" maskUnits="userSpaceOnUse" x="0" y="0" width="100" height="72">
<path d="M100 0.285736H0V71.7143H100V0.285736Z" fill="white"/>
</mask>
<g mask="url(#mask11_26_1704)">
<path d="M57.0912 39.5092V38.7657C57.0912 34.4875 58.0425 33.3452 58.0425 33.3452H51.2026C51.2026 33.3452 52.1539 34.4875 52.1539 38.7657V39.5092H57.0912Z" fill="white"/>
</g>
<mask id="mask12_26_1704" style="mask-type:luminance" maskUnits="userSpaceOnUse" x="0" y="0" width="100" height="72">
<path d="M100 0.285736H0V71.7143H100V0.285736Z" fill="white"/>
</mask>
<g mask="url(#mask12_26_1704)">
<path d="M70.8674 39.5092V38.7657C70.8674 34.4875 71.3642 33.3452 71.3642 33.3452H67.8027C67.8027 33.3452 68.2995 34.4875 68.2995 38.7657V39.5092H70.8674Z" fill="white"/>
</g>
<mask id="mask13_26_1704" style="mask-type:luminance" maskUnits="userSpaceOnUse" x="0" y="0" width="100" height="72">
<path d="M100 0.285736H0V71.7143H100V0.285736Z" fill="white"/>
</mask>
<g mask="url(#mask13_26_1704)">
<path d="M31.7032 39.5092V38.7657C31.7032 34.4875 32.2 33.3452 32.2 33.3452H28.6355C28.6355 33.3452 29.1323 34.4875 29.1323 38.7657V39.5092H31.7032Z" fill="white"/>
</g>
<mask id="mask14_26_1704" style="mask-type:luminance" maskUnits="userSpaceOnUse" x="0" y="0" width="100" height="72">
<path d="M100 0.285736H0V71.7143H100V0.285736Z" fill="white"/>
</mask>
<g mask="url(#mask14_26_1704)">
<path d="M64.7012 39.5092V38.7657C64.7012 34.4875 65.3876 33.3452 65.3876 33.3452H60.4534C60.4534 33.3452 61.1397 34.4875 61.1397 38.7657V39.5092H64.7012Z" fill="white"/>
</g>
<mask id="mask15_26_1704" style="mask-type:luminance" maskUnits="userSpaceOnUse" x="0" y="0" width="100" height="72">
<path d="M100 0.285736H0V71.7143H100V0.285736Z" fill="white"/>
</mask>
<g mask="url(#mask15_26_1704)">
<path d="M38.8572 39.5092V38.7657C38.8572 34.4875 39.5436 33.3452 39.5436 33.3452H34.6094C34.6094 33.3452 35.2958 34.4875 35.2958 38.7657V39.5092H38.8572Z" fill="white"/>
</g>
<mask id="mask16_26_1704" style="mask-type:luminance" maskUnits="userSpaceOnUse" x="0" y="0" width="100" height="72">
<path d="M100 0.285736H0V71.7143H100V0.285736Z" fill="white"/>
</mask>
<g mask="url(#mask16_26_1704)">
<path d="M49.9979 7.95496C51.169 7.95496 52.1474 8.15581 53.0957 8.4736C53.1017 8.4766 53.1108 8.4736 53.1138 8.4676C53.1168 8.46167 53.1138 8.45567 53.1108 8.44967L50.2839 6.32702V6.31803C50.4916 6.2131 50.6361 6.00024 50.6361 5.75439C50.6361 5.50556 50.4916 5.2927 50.2839 5.19077V4.77404L50.6361 4.51021L50.0099 0.291953C50.0099 0.288955 50.0069 0.282959 50.0009 0.282959C49.9948 0.282959 49.9919 0.285957 49.9919 0.291953L49.3657 4.51021L49.7179 4.77404V5.19077C49.5102 5.2957 49.3657 5.50556 49.3657 5.75439C49.3657 6.00324 49.5102 6.2131 49.7179 6.31803V6.32702L46.8911 8.44967C46.8851 8.45267 46.882 8.46167 46.8881 8.4676C46.8911 8.4736 46.9001 8.4766 46.9061 8.4736C47.8454 8.15581 48.8268 7.95496 49.9979 7.95496Z" fill="white"/>
</g>
<mask id="mask17_26_1704" style="mask-type:luminance" maskUnits="userSpaceOnUse" x="0" y="0" width="100" height="72">
<path d="M100 0.285736H0V71.7143H100V0.285736Z" fill="white"/>
</mask>
<g mask="url(#mask17_26_1704)">
<path d="M49.9994 41.9319C37.4336 41.9319 25.2471 43.5449 13.6355 46.5729C14.9692 47.3344 16.4202 47.913 17.9586 48.2698C28.0829 45.1579 38.8425 43.4789 49.9964 43.4789C61.1503 43.4789 71.9099 45.1579 82.0342 48.2698C83.5728 47.913 85.0263 47.3344 86.357 46.5729C74.7521 43.5449 62.5653 41.9319 49.9994 41.9319Z" fill="white"/>
</g>
<mask id="mask18_26_1704" style="mask-type:luminance" maskUnits="userSpaceOnUse" x="0" y="0" width="100" height="72">
<path d="M100 0.285736H0V71.7143H100V0.285736Z" fill="white"/>
</mask>
<g mask="url(#mask18_26_1704)">
<path d="M3.9944 69.0666C3.9944 70.1219 3.62711 70.6166 2.6186 70.6166C1.6191 70.6166 1.25182 70.1219 1.25182 69.0666V65.8047H0.119873V69.3544C0.119873 70.8175 0.86046 71.7139 2.6186 71.7139C4.38275 71.7139 5.12334 70.8175 5.12334 69.3544V65.8047H3.9944V69.0666Z" fill="white"/>
</g>
<mask id="mask19_26_1704" style="mask-type:luminance" maskUnits="userSpaceOnUse" x="0" y="0" width="100" height="72">
<path d="M100 0.285736H0V71.7143H100V0.285736Z" fill="white"/>
</mask>
<g mask="url(#mask19_26_1704)">
<path d="M10.299 69.912L7.77318 65.8047H6.48169V71.621H7.6046V67.5106L10.1335 71.621H11.428V65.8047H10.299V69.912Z" fill="white"/>
</g>
<mask id="mask20_26_1704" style="mask-type:luminance" maskUnits="userSpaceOnUse" x="0" y="0" width="100" height="72">
<path d="M100 0.285736H0V71.7143H100V0.285736Z" fill="white"/>
</mask>
<g mask="url(#mask20_26_1704)">
<path d="M13.9414 65.8047H12.8125V71.621H13.9414V65.8047Z" fill="white"/>
</g>
<mask id="mask21_26_1704" style="mask-type:luminance" maskUnits="userSpaceOnUse" x="0" y="0" width="100" height="72">
<path d="M100 0.285736H0V71.7143H100V0.285736Z" fill="white"/>
</mask>
<g mask="url(#mask21_26_1704)">
<path d="M17.3945 70.5297L15.9525 65.8047H14.7363L16.5727 71.621H18.2074L20.0589 65.8047H18.8396L17.3945 70.5297Z" fill="white"/>
</g>
<mask id="mask22_26_1704" style="mask-type:luminance" maskUnits="userSpaceOnUse" x="0" y="0" width="100" height="72">
<path d="M100 0.285736H0V71.7143H100V0.285736Z" fill="white"/>
</mask>
<g mask="url(#mask22_26_1704)">
<path d="M21.9103 69.1685H24.1923V68.1193H21.9103V66.851H24.4361V65.8047H20.7783V71.621H24.4512V70.5656H21.9103V69.1685Z" fill="white"/>
</g>
<mask id="mask23_26_1704" style="mask-type:luminance" maskUnits="userSpaceOnUse" x="0" y="0" width="100" height="72">
<path d="M100 0.285736H0V71.7143H100V0.285736Z" fill="white"/>
</mask>
<g mask="url(#mask23_26_1704)">
<path d="M29.9092 67.5316C29.9092 66.2964 29.0572 65.8047 27.8289 65.8047H25.5259V71.621H26.6548V69.3394H27.4767L28.8374 71.621H30.0838L28.6267 69.2405C29.4847 69.0037 29.9092 68.3501 29.9092 67.5316ZM27.8982 68.35H26.6518V66.851H27.8982C28.8074 66.851 28.7682 67.4776 28.7682 67.5766C28.7712 68.0862 28.4461 68.35 27.8982 68.35Z" fill="white"/>
</g>
<mask id="mask24_26_1704" style="mask-type:luminance" maskUnits="userSpaceOnUse" x="0" y="0" width="100" height="72">
<path d="M100 0.285736H0V71.7143H100V0.285736Z" fill="white"/>
</mask>
<g mask="url(#mask24_26_1704)">
<path d="M33.45 68.215C32.4806 67.9632 32.1044 67.8313 32.1044 67.3186C32.1044 66.8419 32.6131 66.716 33.0918 66.716C33.6608 66.716 34.2358 66.8749 34.6602 67.1537L35.0908 66.2153C34.594 65.8915 33.8384 65.7057 33.0827 65.7057C31.7581 65.7057 30.9724 66.3592 30.9664 67.3246C30.9604 68.3319 31.5474 68.8057 32.4927 69.0664C33.4259 69.3363 34.0641 69.4682 34.0641 70.0049C34.0641 70.4276 33.6608 70.7004 32.8901 70.7004C32.2579 70.7004 31.6437 70.5295 31.2132 70.2357L30.7827 71.1741C31.3005 71.5189 32.1013 71.7107 32.9352 71.7107C34.6331 71.7107 35.2111 70.8353 35.2111 69.9749C35.2081 69.0874 34.7024 68.5568 33.45 68.215Z" fill="white"/>
</g>
<mask id="mask25_26_1704" style="mask-type:luminance" maskUnits="userSpaceOnUse" x="0" y="0" width="100" height="72">
<path d="M100 0.285736H0V71.7143H100V0.285736Z" fill="white"/>
</mask>
<g mask="url(#mask25_26_1704)">
<path d="M37.4053 65.8047H36.2764V71.621H37.4053V65.8047Z" fill="white"/>
</g>
<mask id="mask26_26_1704" style="mask-type:luminance" maskUnits="userSpaceOnUse" x="0" y="0" width="100" height="72">
<path d="M100 0.285736H0V71.7143H100V0.285736Z" fill="white"/>
</mask>
<g mask="url(#mask26_26_1704)">
<path d="M38.2659 66.86H40.1143V71.621H41.2462V66.86H43.1037V65.8047H38.2659V66.86Z" fill="white"/>
</g>
<mask id="mask27_26_1704" style="mask-type:luminance" maskUnits="userSpaceOnUse" x="0" y="0" width="100" height="72">
<path d="M100 0.285736H0V71.7143H100V0.285736Z" fill="white"/>
</mask>
<g mask="url(#mask27_26_1704)">
<path d="M47.7979 65.8047L46.3438 68.377L44.8897 65.8047H43.6133L45.7749 69.4324V71.621H46.9128V69.4324L49.0714 65.8047H47.7979Z" fill="white"/>
</g>
<mask id="mask28_26_1704" style="mask-type:luminance" maskUnits="userSpaceOnUse" x="0" y="0" width="100" height="72">
<path d="M100 0.285736H0V71.7143H100V0.285736Z" fill="white"/>
</mask>
<g mask="url(#mask28_26_1704)">
<path d="M54.2581 65.7029C52.4368 65.7029 51.2808 67.037 51.2808 68.6949C51.2868 70.3439 52.4428 71.7109 54.2581 71.7109C56.0644 71.7109 57.2205 70.3439 57.2265 68.6949C57.2295 67.04 56.0735 65.7029 54.2581 65.7029ZM54.2581 70.6166C53.1713 70.6166 52.4248 69.7742 52.4187 68.6979C52.4187 67.6066 53.1563 66.8031 54.2581 66.8031C55.3449 66.8031 56.0915 67.6066 56.0915 68.6979C56.0855 69.7712 55.3389 70.6166 54.2581 70.6166Z" fill="white"/>
</g>
<mask id="mask29_26_1704" style="mask-type:luminance" maskUnits="userSpaceOnUse" x="0" y="0" width="100" height="72">
<path d="M100 0.285736H0V71.7143H100V0.285736Z" fill="white"/>
</mask>
<g mask="url(#mask29_26_1704)">
<path d="M61.7694 66.86V65.8047H58.0273V71.621H59.1563V69.1745H61.5195V68.1193H59.1563V66.86H61.7694Z" fill="white"/>
</g>
<mask id="mask30_26_1704" style="mask-type:luminance" maskUnits="userSpaceOnUse" x="0" y="0" width="100" height="72">
<path d="M100 0.285736H0V71.7143H100V0.285736Z" fill="white"/>
</mask>
<g mask="url(#mask30_26_1704)">
<path d="M66.544 68.215C65.5746 67.9632 65.1983 67.8313 65.1983 67.3186C65.1983 66.8419 65.7071 66.716 66.1857 66.716C66.7547 66.716 67.3297 66.8749 67.7572 67.1537L68.1877 66.2153C67.691 65.8915 66.9354 65.7057 66.1797 65.7057C64.8551 65.7057 64.0693 66.3592 64.0633 67.3246C64.0573 68.3319 64.6444 68.8057 65.5896 69.0664C66.5229 69.3363 67.1611 69.4682 67.1611 70.0049C67.1611 70.4276 66.7577 70.7004 65.987 70.7004C65.3548 70.7004 64.7406 70.5295 64.3101 70.2357L63.8796 71.1741C64.3975 71.5189 65.1983 71.7107 66.0322 71.7107C67.7331 71.7107 68.3081 70.8353 68.3081 69.9749C68.3021 69.0874 67.7964 68.5568 66.544 68.215Z" fill="white"/>
</g>
<mask id="mask31_26_1704" style="mask-type:luminance" maskUnits="userSpaceOnUse" x="0" y="0" width="100" height="72">
<path d="M100 0.285736H0V71.7143H100V0.285736Z" fill="white"/>
</mask>
<g mask="url(#mask31_26_1704)">
<path d="M72.7337 68.1193H70.1985V65.8047H69.0696V71.618H70.1985V69.1805H72.7337V71.618H73.8651V65.8047H72.7337V68.1193Z" fill="white"/>
</g>
<mask id="mask32_26_1704" style="mask-type:luminance" maskUnits="userSpaceOnUse" x="0" y="0" width="100" height="72">
<path d="M100 0.285736H0V71.7143H100V0.285736Z" fill="white"/>
</mask>
<g mask="url(#mask32_26_1704)">
<path d="M76.5621 65.8047L74.4307 71.621H75.6049L76.1014 70.1999H78.4049L78.9071 71.621H80.0721L77.9257 65.8047H76.5621ZM76.4385 69.1895L77.2242 66.98L77.2457 66.908L77.2664 66.98L78.0585 69.1895H76.4385Z" fill="white"/>
</g>
<mask id="mask33_26_1704" style="mask-type:luminance" maskUnits="userSpaceOnUse" x="0" y="0" width="100" height="72">
<path d="M100 0.285736H0V71.7143H100V0.285736Z" fill="white"/>
</mask>
<g mask="url(#mask33_26_1704)">
<path d="M87.5222 69.7363C87.5222 70.3749 87.2329 70.6118 86.7815 70.6118C86.4772 70.6118 86.1979 70.5338 85.9329 70.4048L85.5229 71.3733C85.8394 71.5531 86.3872 71.7178 87.0344 71.7178C88.0915 71.7178 88.6544 71.1004 88.6544 69.8682V65.8088H87.5251V69.7363H87.5222Z" fill="white"/>
</g>
<mask id="mask34_26_1704" style="mask-type:luminance" maskUnits="userSpaceOnUse" x="0" y="0" width="100" height="72">
<path d="M100 0.285736H0V71.7143H100V0.285736Z" fill="white"/>
</mask>
<g mask="url(#mask34_26_1704)">
<path d="M91.1185 65.8047L88.9871 71.621H90.1613L90.6578 70.1999H92.9606L93.4635 71.621H94.6285L92.4821 65.8047H91.1185ZM90.9978 69.1895L91.8049 66.911L92.6178 69.1895H90.9978Z" fill="white"/>
</g>
<mask id="mask35_26_1704" style="mask-type:luminance" maskUnits="userSpaceOnUse" x="0" y="0" width="100" height="72">
<path d="M100 0.285736H0V71.7143H100V0.285736Z" fill="white"/>
</mask>
<g mask="url(#mask35_26_1704)">
<path d="M98.8672 65.8047V68.1193H96.3329V65.8047H95.2036V71.621H96.3329V69.1805H98.8672V71.621H99.9965V65.8047H98.8672Z" fill="white"/>
</g>
<mask id="mask36_26_1704" style="mask-type:luminance" maskUnits="userSpaceOnUse" x="0" y="0" width="100" height="72">
<path d="M100 0.285736H0V71.7143H100V0.285736Z" fill="white"/>
</mask>
<g mask="url(#mask36_26_1704)">
<path d="M85.032 67.5316C85.032 66.2964 84.1799 65.8047 82.9513 65.8047H80.6484V71.621H81.7777V69.3394H82.5992L83.9599 71.621H85.2063L83.7527 69.2405C84.6077 69.0037 85.032 68.3501 85.032 67.5316ZM83.0242 68.35H81.7777V66.851H83.0242C83.9327 66.851 83.8942 67.4776 83.8942 67.5766C83.8942 68.0862 83.5684 68.35 83.0242 68.35Z" fill="white"/>
</g>
<mask id="mask37_26_1704" style="mask-type:luminance" maskUnits="userSpaceOnUse" x="0" y="0" width="100" height="72">
<path d="M100 0.285736H0V71.7143H100V0.285736Z" fill="white"/>
</mask>
<g mask="url(#mask37_26_1704)">
<path d="M78.6763 57.0214C77.3099 57.0214 76.1985 58.1247 76.1985 59.4858C76.1985 59.9355 76.3313 60.3523 76.557 60.703H71.6556L72.7485 58.2266C72.3606 57.8608 71.5628 57.0184 69.961 57.0184C68.4498 57.0184 67.655 57.7709 67.1733 58.2266L68.2661 60.703H58.0214V57.0184H55.2758C53.9632 57.0184 52.8975 58.0797 52.8975 59.3868C52.8975 60.697 53.9632 61.7553 55.2758 61.7553H81.1478V59.4828C81.1513 58.1247 80.0435 57.0214 78.6763 57.0214ZM55.354 60.706C54.6255 60.706 54.0325 60.1184 54.0325 59.3898C54.0325 58.6643 54.6225 58.0737 55.354 58.0737H56.8955V60.703H55.354V60.706ZM68.525 58.4844C68.9285 58.2206 69.4372 58.0767 69.964 58.0767C70.4939 58.0767 70.9997 58.2236 71.4031 58.4844L70.4217 60.706H69.5035L68.525 58.4844ZM80.022 60.706H78.6256C77.9085 60.706 77.3306 60.1274 77.3306 59.4168C77.3306 58.6763 77.9328 58.0767 78.6763 58.0767C79.4199 58.0767 80.022 58.6763 80.022 59.4168V60.706Z" fill="white"/>
</g>
<mask id="mask38_26_1704" style="mask-type:luminance" maskUnits="userSpaceOnUse" x="0" y="0" width="100" height="72">
<path d="M100 0.285736H0V71.7143H100V0.285736Z" fill="white"/>
</mask>
<g mask="url(#mask38_26_1704)">
<path d="M95.7672 62.5764C95.3972 62.5764 95.0994 62.8763 95.0994 63.242C95.0994 63.6108 95.4001 63.9076 95.7672 63.9076C96.1379 63.9076 96.4358 63.6108 96.4358 63.242C96.4386 62.8763 96.1379 62.5764 95.7672 62.5764Z" fill="white"/>
</g>
<mask id="mask39_26_1704" style="mask-type:luminance" maskUnits="userSpaceOnUse" x="0" y="0" width="100" height="72">
<path d="M100 0.285736H0V71.7143H100V0.285736Z" fill="white"/>
</mask>
<g mask="url(#mask39_26_1704)">
<path d="M4.55774 56.176C4.92803 56.176 5.22607 55.8792 5.22607 55.5104C5.22607 55.1416 4.92803 54.8448 4.55774 54.8448C4.18745 54.8448 3.8894 55.1416 3.8894 55.5104C3.8894 55.8792 4.19045 56.176 4.55774 56.176Z" fill="white"/>
</g>
<mask id="mask40_26_1704" style="mask-type:luminance" maskUnits="userSpaceOnUse" x="0" y="0" width="100" height="72">
<path d="M100 0.285736H0V71.7143H100V0.285736Z" fill="white"/>
</mask>
<g mask="url(#mask40_26_1704)">
<path d="M2.81823 56.1746C3.18852 56.1746 3.48657 55.8778 3.48657 55.5091C3.48657 55.1403 3.18852 54.8435 2.81823 54.8435C2.44794 54.8435 2.1499 55.1403 2.1499 55.5091C2.1499 55.8778 2.45095 56.1746 2.81823 56.1746Z" fill="white"/>
</g>
<mask id="mask41_26_1704" style="mask-type:luminance" maskUnits="userSpaceOnUse" x="0" y="0" width="100" height="72">
<path d="M100 0.285736H0V71.7143H100V0.285736Z" fill="white"/>
</mask>
<g mask="url(#mask41_26_1704)">
<path d="M57.4625 56.1746C57.8328 56.1746 58.1309 55.8778 58.1309 55.5091C58.1309 55.1403 57.8328 54.8435 57.4625 54.8435C57.0923 54.8435 56.7942 55.1403 56.7942 55.5091C56.7942 55.8778 57.0923 56.1746 57.4625 56.1746Z" fill="white"/>
</g>
<mask id="mask42_26_1704" style="mask-type:luminance" maskUnits="userSpaceOnUse" x="0" y="0" width="100" height="72">
<path d="M100 0.285736H0V71.7143H100V0.285736Z" fill="white"/>
</mask>
<g mask="url(#mask42_26_1704)">
<path d="M55.7213 56.176C56.0916 56.176 56.3897 55.8792 56.3897 55.5104C56.3897 55.1416 56.0916 54.8448 55.7213 54.8448C55.351 54.8448 55.053 55.1416 55.053 55.5104C55.053 55.8792 55.351 56.176 55.7213 56.176Z" fill="white"/>
</g>
<mask id="mask43_26_1704" style="mask-type:luminance" maskUnits="userSpaceOnUse" x="0" y="0" width="100" height="72">
<path d="M100 0.285736H0V71.7143H100V0.285736Z" fill="white"/>
</mask>
<g mask="url(#mask43_26_1704)">
<path d="M15.8568 54.8435C15.4865 54.8435 15.1885 55.1433 15.1885 55.5091C15.1885 55.8778 15.4895 56.1746 15.8568 56.1746C16.227 56.1746 16.5251 55.8778 16.5251 55.5091C16.5251 55.1403 16.227 54.8435 15.8568 54.8435Z" fill="white"/>
</g>
<mask id="mask44_26_1704" style="mask-type:luminance" maskUnits="userSpaceOnUse" x="0" y="0" width="100" height="72">
<path d="M100 0.285736H0V71.7143H100V0.285736Z" fill="white"/>
</mask>
<g mask="url(#mask44_26_1704)">
<path d="M14.1156 56.1746C14.4859 56.1746 14.7839 55.8778 14.7839 55.5091C14.7839 55.1403 14.4859 54.8435 14.1156 54.8435C13.7454 54.8435 13.4473 55.1403 13.4473 55.5091C13.4443 55.8778 13.7454 56.1746 14.1156 56.1746Z" fill="white"/>
</g>
<mask id="mask45_26_1704" style="mask-type:luminance" maskUnits="userSpaceOnUse" x="0" y="0" width="100" height="72">
<path d="M100 0.285736H0V71.7143H100V0.285736Z" fill="white"/>
</mask>
<g mask="url(#mask45_26_1704)">
<path d="M45.9462 60.7054H41.882C41.4485 60.7054 41.0933 60.3546 41.0933 59.9199V57.0208H39.9613V59.5841C39.9613 60.2886 39.3893 60.8583 38.6818 60.8583C37.9744 60.8583 37.4024 60.2886 37.4024 59.5841V57.5064H36.2735V59.749C36.2735 60.3036 35.8249 60.8882 35.1023 60.8583C34.5183 60.8313 34.0427 60.3126 34.0427 59.701V57.5064H32.9137V59.9229C32.9137 60.3576 32.5615 60.7084 32.125 60.7084H21.9073V55.0151H20.7783V61.7607H32.128C32.6668 61.7607 33.1545 61.5359 33.5038 61.1791C33.9132 61.6288 34.5033 61.9106 35.1625 61.9106C35.858 61.9106 36.4782 61.5958 36.8876 61.1041C37.3271 61.5958 37.9713 61.9106 38.6848 61.9106C39.3893 61.9106 40.0185 61.6078 40.461 61.1281C40.8133 61.5149 41.319 61.7607 41.882 61.7607H47.0751V55.0151H45.9462V60.7054Z" fill="white"/>
</g>
<mask id="mask46_26_1704" style="mask-type:luminance" maskUnits="userSpaceOnUse" x="0" y="0" width="100" height="72">
<path d="M100 0.285736H0V71.7143H100V0.285736Z" fill="white"/>
</mask>
<g mask="url(#mask46_26_1704)">
<path d="M49.6529 55.0151H48.5239V61.7607H49.6529V55.0151Z" fill="white"/>
</g>
<mask id="mask47_26_1704" style="mask-type:luminance" maskUnits="userSpaceOnUse" x="0" y="0" width="100" height="72">
<path d="M100 0.285736H0V71.7143H100V0.285736Z" fill="white"/>
</mask>
<g mask="url(#mask47_26_1704)">
<path d="M36.8429 55.3055C37.2132 55.3055 37.5113 55.0087 37.5113 54.6399C37.5113 54.2712 37.2132 53.9744 36.8429 53.9744C36.4726 53.9744 36.1746 54.2712 36.1746 54.6399C36.1746 55.0057 36.4726 55.3055 36.8429 55.3055Z" fill="white"/>
</g>
<mask id="mask48_26_1704" style="mask-type:luminance" maskUnits="userSpaceOnUse" x="0" y="0" width="100" height="72">
<path d="M100 0.285736H0V71.7143H100V0.285736Z" fill="white"/>
</mask>
<g mask="url(#mask48_26_1704)">
<path d="M37.7428 55.3959C37.3725 55.3959 37.0745 55.6957 37.0745 56.0615C37.0745 56.4302 37.3755 56.7271 37.7428 56.7271C38.1131 56.7271 38.4111 56.4302 38.4111 56.0615C38.4141 55.6927 38.1131 55.3959 37.7428 55.3959Z" fill="white"/>
</g>
<mask id="mask49_26_1704" style="mask-type:luminance" maskUnits="userSpaceOnUse" x="0" y="0" width="100" height="72">
<path d="M100 0.285736H0V71.7143H100V0.285736Z" fill="white"/>
</mask>
<g mask="url(#mask49_26_1704)">
<path d="M35.9391 55.3959C35.5688 55.3959 35.2708 55.6957 35.2708 56.0615C35.2708 56.4302 35.5688 56.7271 35.9391 56.7271C36.3094 56.7271 36.6074 56.4302 36.6074 56.0615C36.6104 55.6927 36.3094 55.3959 35.9391 55.3959Z" fill="white"/>
</g>
<mask id="mask50_26_1704" style="mask-type:luminance" maskUnits="userSpaceOnUse" x="0" y="0" width="100" height="72">
<path d="M100 0.285736H0V71.7143H100V0.285736Z" fill="white"/>
</mask>
<g mask="url(#mask50_26_1704)">
<path d="M12.0179 60.3311L12.1173 60.7058H5.12389V57.0212H2.3783C1.06271 57.0212 0 58.0825 0 59.3897C0 60.6998 1.06572 61.7582 2.3783 61.7582H16.4193V57.0212H14.5709C12.8368 57.0212 11.5724 58.6612 12.0179 60.3311ZM2.45055 60.7058C1.72201 60.7058 1.12894 60.1182 1.12894 59.3897C1.12894 58.6642 1.719 58.0735 2.45055 58.0735H3.99193V60.7028H2.45055V60.7058ZM15.2904 60.7058H13.2884L13.0897 59.9683C12.8338 59.012 13.5594 58.0765 14.5498 58.0765H15.2874V60.7058H15.2904Z" fill="white"/>
</g>
<mask id="mask51_26_1704" style="mask-type:luminance" maskUnits="userSpaceOnUse" x="0" y="0" width="100" height="72">
<path d="M100 0.285736H0V71.7143H100V0.285736Z" fill="white"/>
</mask>
<g mask="url(#mask51_26_1704)">
<path d="M98.8801 59.6139C97.8079 58.1119 96.1886 55.9173 92.8079 57.6741L93.2958 58.6065C95.7101 57.3504 96.7758 58.4866 98.0158 60.2255C98.1422 60.4054 98.2658 60.5642 98.3801 60.7081H83.7279V55.0179H82.5994V61.7635H100V60.7111C99.7229 60.7051 99.2565 60.1385 98.8801 59.6139Z" fill="white"/>
</g>
<mask id="mask52_26_1704" style="mask-type:luminance" maskUnits="userSpaceOnUse" x="0" y="0" width="100" height="72">
<path d="M100 0.285736H0V71.7143H100V0.285736Z" fill="white"/>
</mask>
<g mask="url(#mask52_26_1704)">
<path d="M18.2046 57.0212V61.2574C18.2046 61.3714 18.1804 62.3397 16.6782 62.1449V63.2002C19.0626 63.467 19.3335 61.6262 19.3335 61.1855V57.0212H18.2046Z" fill="white"/>
</g>
</g>
<defs>
<clipPath id="clip0_26_1704">
<rect width="100" height="71.4286" fill="white" transform="translate(0 0.285736)"/>
</clipPath>
</defs>
</svg>
