<svg width="30" height="62" viewBox="0 0 30 62" fill="none" xmlns="http://www.w3.org/2000/svg">
<g clip-path="url(#clip0_334_174)">
<path d="M8.82518 42.8209L9.78311 40.5571L7.4702 39.6243L7.06815 38.6673L3.05284 40.2996L2.71533 43.4236L5.21187 45.4005L9.22722 43.7732L8.82518 42.8209Z" fill="#0E7F41"/>
<path d="M13.2276 47.8446H15.3569V45.7651L14.2352 44.6673L17.6698 41.3053L13.183 43.1222L12.5774 41.6938L10.612 40.8971L9.798 42.8209L10.4035 44.2494L6.01099 46.0321L8.01617 47.621L8.74576 50.0402L12.1109 46.7513L13.2276 47.8446Z" fill="#0E7F41"/>
<path d="M15.3569 51.1723V48.7237H12.8554L12.1109 47.995L9.03864 51.002L9.94692 54.0194L13.0291 54.913L16.1014 51.901L15.3569 51.1723Z" fill="#0E7F41"/>
<path d="M6.95898 33.022V34.5718H2.19916L3.43503 36.7871L3.16204 39.2988L7.55459 37.5207L8.16008 38.949L10.1256 39.7458L10.9396 37.8219L10.334 36.3936L14.8258 34.5718H9.96676V33.022L8.46287 31.55L6.95898 33.022Z" fill="#0E7F41"/>
<path d="M21.3873 54.1649L23.3528 53.3684L22.5388 51.4443L21.0796 50.8516L22.9359 46.4599L19.5012 49.8215L18.3845 48.7237H16.2552V50.8078L17.377 51.901L14.0118 55.1949L16.4836 55.9091L18.1066 57.8716L19.9281 53.5721L21.3873 54.1649Z" fill="#0E7F41"/>
<path d="M25.6707 34.7224L21.5065 38.7984L26.9463 36.5928L26.6038 35.4608L25.6707 34.7224Z" fill="#0E7F41"/>
<path d="M13.2673 41.0186L13.6743 41.9707L19.3325 39.6778L24.5489 34.5718H17.1785L11.5103 36.8697L11.9173 37.8219L10.9594 40.081L13.2673 41.0186Z" fill="#0E7F41"/>
<path d="M18.7568 47.8446L19.5012 48.5733L23.8392 44.3321L26.6584 37.6616L19.8437 40.4259L15.5107 44.6673L16.2552 45.396V47.8446H18.7568Z" fill="#0E7F41"/>
<path d="M28.9068 37.7151L27.7553 37.3798L25.502 42.7044L29.6612 38.6284L28.9068 37.7151Z" fill="#0E7F41"/>
<path d="M25.2339 33.6925L25.358 32.5216L24.7872 31.4868L19.3474 33.6925H25.2339Z" fill="#0E7F41"/>
<path d="M24.6532 56.4436L23.7003 54.1843L21.3874 55.1172L20.4145 54.7237L18.7518 58.6541L20.7719 61.1022L23.9683 60.767L25.631 56.8371L24.6532 56.4436Z" fill="#0E7F41"/>
<path d="M26.4946 53.0476L24.5291 53.8441L25.3431 55.7682L26.8073 56.3609L24.9857 60.6604L27.5518 60.3979L29.815 61.6028V49.2483L27.9587 53.6403L26.4946 53.0476Z" fill="#0E7F41"/>
<path d="M1.7078 33.6925H6.05565V32.6576L7.82261 30.9281L6.05565 29.1986V28.1638H1.7078L0.174133 30.9281L1.7078 33.6925Z" fill="#0E7F41"/>
<path d="M22.2559 50.3754L23.2287 50.7689L24.1866 53.0331L26.4946 52.0953L27.4723 52.4888L29.815 46.9456V39.7263L24.5986 44.8272L22.2559 50.3754Z" fill="#0E7F41"/>
<path d="M7.06815 23.1842L7.47514 22.232L9.78311 21.2943L8.82518 19.0352L9.23217 18.0782L5.21187 16.4507L2.71533 18.428L3.05284 21.5567L7.06815 23.1842Z" fill="#0E7F41"/>
<path d="M9.798 19.0352L10.612 20.9591L12.5774 20.1624L13.183 18.7292L17.6698 20.551L14.2352 17.1891L15.3569 16.0912V14.0119H13.2276L12.1109 15.105L8.74576 11.816L8.01617 14.2354L6.01099 15.8191L10.4035 17.6021L9.798 19.0352Z" fill="#0E7F41"/>
<path d="M21.5065 23.0578L25.6707 27.1339L26.6038 26.3906L26.9463 25.2635L21.5065 23.0578Z" fill="#0E7F41"/>
<path d="M17.1785 27.2845H24.5489L19.3325 22.1785L13.6743 19.8806L13.2673 20.8377L10.9594 21.7704L11.9173 24.0343L11.5103 24.9865L17.1785 27.2845Z" fill="#0E7F41"/>
<path d="M12.8554 13.1277H15.3569V10.684L16.1014 9.95042L13.0291 6.94317L9.94692 7.83225L9.03864 10.854L12.1109 13.8613L12.8554 13.1277Z" fill="#0E7F41"/>
<path d="M6.95898 28.8343L8.46287 30.3063L9.96676 28.8343V27.2845H14.8258L10.334 25.4627L10.9396 24.0343L10.1256 22.1105L8.16008 22.9073L7.55459 24.3355L3.16204 22.5575L3.43503 25.0643L2.19916 27.2845H6.95898V28.8343Z" fill="#0E7F41"/>
<path d="M24.7872 30.3694L25.358 29.3346L25.2339 28.1638H19.3474L24.7872 30.3694Z" fill="#0E7F41"/>
<path d="M21.3874 6.73427L23.7003 7.67192L24.6532 5.41285L25.631 5.01935L23.9683 1.08907L20.7719 0.753845L18.7518 3.20238L20.4145 7.13264L21.3874 6.73427Z" fill="#0E7F41"/>
<path d="M25.3431 6.08815L24.5291 8.01201L26.4946 8.80875L27.9587 8.21603L29.815 12.6079V0.253452L27.5518 1.45828L24.9857 1.19109L26.8073 5.49547L25.3431 6.08815Z" fill="#0E7F41"/>
<path d="M26.4946 9.76095L24.1866 8.8233L23.2287 11.0873L22.2559 11.4807L24.5986 17.024L29.815 22.1299V14.9106L27.4723 9.36746L26.4946 9.76095Z" fill="#0E7F41"/>
<path d="M25.502 19.1518L27.7503 24.4716L28.9068 24.1412L29.6612 23.223L25.502 19.1518Z" fill="#0E7F41"/>
<path d="M19.5012 13.2783L18.7568 14.0119H16.2552V16.4555L15.5107 17.1891L19.8437 21.4303L26.6584 24.1947L23.8392 17.5243L19.5012 13.2783Z" fill="#0E7F41"/>
<path d="M10.8651 29.1986L9.09814 30.9281L10.8651 32.6576V33.6925H16.9998L23.8094 30.9281L16.9998 28.1638H10.8651V29.1986Z" fill="#0E7F41"/>
<path d="M16.2552 11.0484V13.1277H18.3845L19.5012 12.0346L22.9359 15.3965L21.0796 11.0047L22.5388 10.412L23.3528 8.48809L21.3873 7.69135L19.9281 8.28407L18.1066 3.97969L16.4836 5.94725L14.0118 6.66141L17.377 9.95042L16.2552 11.0484Z" fill="#0E7F41"/>
</g>
<defs>
<clipPath id="clip0_334_174">
<rect width="30" height="62" fill="white"/>
</clipPath>
</defs>
</svg>
